<?xml version="1.0" standalone="no"?>
<!DOCTYPE svg PUBLIC "-//W3C//DTD SVG 1.1//EN" "http://www.w3.org/Graphics/SVG/1.1/DTD/svg11.dtd" >
<svg xmlns="http://www.w3.org/2000/svg">
<metadata></metadata>
<defs>
<font id="inikabold" horiz-adv-x="1218" >
<font-face units-per-em="2048" ascent="1638" descent="-410" />
<missing-glyph horiz-adv-x="532" />
<glyph unicode="&#xd;" horiz-adv-x="681" />
<glyph unicode=" "  horiz-adv-x="532" />
<glyph unicode="&#x09;" horiz-adv-x="532" />
<glyph unicode="&#xa0;" horiz-adv-x="532" />
<glyph unicode="!" horiz-adv-x="595" d="M438 383q-31 -6 -79 -6t-115 10l-49 1092q59 6 129.5 6t142.5 -17zM205 254q80 6 136 6t138 -18q8 -59 8 -107.5t-18 -140.5q-80 -6 -136.5 -6t-137.5 18q-8 59 -8 107.5t18 140.5z" />
<glyph unicode="&#x22;" horiz-adv-x="831" d="M444 1501q16 -82 16.5 -155.5t-14 -177t-40.5 -158.5q-53 -14 -76 -14.5t-31 -0.5q-29 4 -59 4q8 57 8 109q0 166 -94 379q104 23 144 22.5t146 -8.5zM799 1501q18 -92 18 -160.5t-14.5 -172t-42.5 -158.5q-51 -14 -92 -15l-74 4q10 57 10 109q0 158 -94 379 q102 23 142.5 22.5t146.5 -8.5z" />
<glyph unicode="#" horiz-adv-x="1366" d="M758 383l-230 2l-45 -377q-57 -14 -88 -14l-108 12l32 381l-256 4q-10 53 -10 86l8 92q139 14 232 15h43q6 78 26 311l-245 4q-10 51 -11 86l9 92q139 14 231 15h33l29 338q100 6 140 6t109 -6l-43 -343q123 0 203 -2q25 264 31 345q102 6 141 6t109 -6l-45 -347 q176 0 250 -6q4 -57 4 -91t-11 -83q-139 -14 -229 -14h-37l-39 -314l252 -2q8 -61 8 -94t-8 -84q-139 -14 -229 -14h-45l-45 -373q-57 -14 -88 -14l-109 12zM553 582l223 -4q4 57 27 313q-141 0 -211 2z" />
<glyph unicode="$" horiz-adv-x="1030" d="M297 406l68 -5l24 -213q78 -29 144.5 -28.5t112.5 36t46 85t-32.5 82t-67.5 52t-105.5 53.5t-114.5 58.5t-102 67.5q-109 84 -108.5 215t74 216t202.5 110l-2 239q55 18 112.5 18.5t106.5 -16.5q-4 -160 -4 -239q135 -20 260 -84q4 -39 4 -122t-22 -183q-16 -6 -90 -16.5 t-107 -10.5l-69 227q-31 10 -82 10t-86 -33.5t-35 -83.5t50 -87t132 -76t117 -57.5t86 -52t80 -66.5q70 -84 69 -178q0 -139 -88 -226.5t-231 -113.5l-2 -220q-43 -16 -87 -16t-95 14q0 74 -4 218q-197 25 -328 122q0 145 31 291q98 13 143 13z" />
<glyph unicode="%" horiz-adv-x="1744" d="M175 1414q93 114 278.5 114t281.5 -110.5t96 -300t-96 -309.5t-280 -120q-373 0 -373 418q0 194 93 308zM996.5 699.5q93.5 113.5 278.5 113.5t280.5 -110.5t95.5 -301t-95.5 -309.5t-279.5 -119q-373 0 -373 418q0 195 93.5 308.5zM1452 1386l-1034 -1425 q-78 37 -146 100l981 1455q123 -52 199 -130zM393.5 870.5q24.5 -16.5 64.5 -16.5t67.5 20.5t37.5 63.5q16 66 16.5 140.5t-3 109.5t-13.5 82q-20 92 -108 92q-68 0 -99 -51q-25 -41 -26.5 -98.5t-1.5 -105.5t1 -73.5t8 -64.5t19.5 -60.5t37 -38zM1214.5 157.5 q24.5 -16.5 60.5 -16.5t60.5 16.5t36.5 37t21 57.5q8 47 8 115.5t-3 104.5t-14 81q-20 94 -108 94q-68 0 -98 -51q-25 -41 -27 -98.5t-2 -104.5t1 -73.5t8 -64.5t19.5 -59.5t37 -38z" />
<glyph unicode="&#x26;" horiz-adv-x="1490" d="M655 1276q-82 0 -116.5 -48t-34.5 -99.5t21.5 -96.5t47 -74.5t76.5 -82t103 -109.5l264 -307q20 20 30.5 38.5t23.5 41t21.5 50t18.5 66.5q16 72 20 201l-161 21q0 88 47 178h516l-8 -117q-72 -43 -160 -59q0 -172 -75 -328t-138 -217l248 -277q-45 -94 -152 -94 l-223 197q-82 -76 -199.5 -130.5t-210.5 -54.5q-225 0 -378.5 116t-153.5 329q0 127 74.5 228.5t181.5 160.5q-119 139 -119 296t112.5 255t309.5 98q104 0 204.5 -49t160.5 -109l-37 -221q-45 -23 -97.5 -22.5t-76.5 4.5l-50 207q-57 8 -90 8zM395 556q-39 -62 -39 -132 t29 -124t74 -81q86 -51 162 -51q158 0 272 125l-391 364q-68 -39 -107 -101z" />
<glyph unicode="'" horiz-adv-x="419" d="M391 1501q18 -92 18.5 -160.5t-14 -172t-43.5 -158.5q-51 -14 -92 -15l-74 4q10 57 11 109q0 158 -95 379q100 23 141.5 22.5t147.5 -8.5z" />
<glyph unicode="(" horiz-adv-x="667" d="M668 1417q-254 -590 -254 -909.5t254 -904.5l37 -90q-61 -70 -168 -86q-137 180 -265.5 502.5t-128.5 580.5t128 580.5t266 502.5q102 -27 168 -86z" />
<glyph unicode=")" horiz-adv-x="667" d="M68 -397q254 586 254 905t-254 909l-37 90q66 59 168 86q137 -180 265 -502.5t128 -580.5t-128 -580.5t-265 -502.5q-106 16 -168 86z" />
<glyph unicode="*" horiz-adv-x="880" d="M395 1311l-6 166q0 23 2 28q61 20 111.5 20.5t97.5 -12.5q25 -20 37 -77q-6 -20 -55.5 -91t-53.5 -81q6 4 83 51t100 53q88 -92 106 -158q0 -29 -55 -71q-25 -4 -51.5 -4t-84 3t-77.5 3q12 -8 61 -35q117 -61 135 -80q-27 -102 -81 -158q-16 -4 -46 -4t-69 15 q-25 29 -74 153l6 -166q0 -23 -2 -28q-66 -20 -116 -20.5t-93 11.5q-27 18 -39 76q8 23 53.5 91.5t51.5 80.5q-6 -4 -83 -51t-97 -51q-86 92 -103 158q0 27 53 71q25 4 51.5 4t82 -3t73.5 -3q-12 8 -59 35q-115 63 -131 80q29 102 82 158q20 4 43.5 4t73.5 -17 q10 -12 39.5 -78.5t33.5 -72.5z" />
<glyph unicode="+" horiz-adv-x="1077" d="M659 2q-68 -6 -117.5 -6t-88.5 8q-29 152 -29 243t2 185l-363 8q-8 39 -8 84t6 92q160 29 275 29h94l8 404q39 8 89.5 8t117.5 -6q27 -150 27 -263v-149l372 -8q8 -39 8.5 -85t-5.5 -89q-160 -31 -234 -31t-147 2z" />
<glyph unicode="," horiz-adv-x="430" d="M379 262q18 -74 18 -168t-79.5 -207.5t-149.5 -156.5q-72 31 -117 82q27 80 117 186l-51 6q-18 63 -18.5 130t5.5 118q84 18 126.5 18t148.5 -8z" />
<glyph unicode="-" horiz-adv-x="669" d="M635 612q8 -39 8 -85t-6 -95q-141 -14 -231 -14l-297 12q-10 37 -10.5 85t5.5 97q141 14 232 15z" />
<glyph unicode="." horiz-adv-x="425" d="M385 260q18 -74 18 -126t-6 -118q-70 -18 -133 -18t-139 6q-20 82 -20.5 120t8.5 124q68 18 130 18t142 -6z" />
<glyph unicode="/" horiz-adv-x="833" d="M684 1440q53 0 158 -19l-545 -1419q-43 -10 -119 -10t-117 6l517 1434q53 8 106 8z" />
<glyph unicode="0" horiz-adv-x="1079" d="M569 1130q254 0 371 -146t117 -415.5t-117 -431.5t-373 -162t-366.5 144.5t-110.5 437.5q0 573 479 573zM569.5 162q61.5 0 103.5 22.5t63.5 55t33.5 92.5q16 78 16 227q0 385 -217 385q-59 0 -102 -24.5t-65.5 -57.5t-34.5 -88q-16 -74 -16.5 -175t2.5 -151.5t14.5 -111 t34 -94t64.5 -57t103.5 -23.5z" />
<glyph unicode="1" horiz-adv-x="737" d="M580 1001q0 -25 -21 -804l170 -19q0 -90 -47 -178h-569l-19 113q152 57 230 73q-18 643 -19 650q-127 -49 -199 -58q-53 94 -55 180l432 150q72 -39 97 -107z" />
<glyph unicode="2" horiz-adv-x="927" d="M342 698l-74 -2q-37 0 -118 15q-39 106 -41 268q55 55 158.5 103t195.5 48q188 0 304 -96t116 -223t-55.5 -223t-196.5 -219l-215 -187h223q23 162 29 183q25 4 76 4t106 -23q29 -143 29 -274l-2 -72h-748q-35 74 -35 158q446 430 492 510q27 47 26 137q0 49 -41 96 t-125 47q-39 0 -57 -2q-10 -45 -26.5 -136.5t-20.5 -111.5z" />
<glyph unicode="3" horiz-adv-x="970" d="M598 780q0 174 -184 174q-18 0 -47 -4l-48 -250q-143 0 -190 13q-41 115 -41 248v18q47 57 154.5 103t187.5 46q190 0 313 -93t123 -228q0 -178 -178 -291q98 -31 166 -120t68 -224t-88.5 -246.5t-205 -164t-252.5 -52.5t-317 62q4 104 45 163l62 -12q98 -25 160.5 -24.5 t95.5 6.5t92 26.5t98 75.5t39 147.5t-63.5 155t-163.5 62.5q-6 0 -141 -13q-20 86 -20.5 113t3.5 68l121 16q88 12 149.5 72.5t61.5 152.5z" />
<glyph unicode="4" horiz-adv-x="1089" d="M1075 242l2 -47q0 -80 -35 -140h-176l-14 -319q-35 -8 -94.5 -8t-108.5 6l-14 321h-563q-41 59 -41 125q0 16 4 25l522 901h332q0 -8 -19 -862zM631 246l-15 514l-305 -518q107 0 320 4z" />
<glyph unicode="5" horiz-adv-x="923" d="M598 300q-55 71 -164.5 71t-179.5 -19q-25 14 -66 54t-59 65l-23 635h807q14 -55 14.5 -165t-44.5 -245q-59 -14 -113.5 -14t-79.5 2l-43 234h-285l-24 -367q41 18 96 18q211 0 350.5 -108.5t139.5 -305t-161 -320.5t-396 -124q-57 0 -152.5 17.5t-153.5 42.5 q0 37 14.5 92t30.5 71q104 -37 259 -36q90 0 159 30q129 59 129 226q0 75 -55 146z" />
<glyph unicode="6" horiz-adv-x="1144" d="M874 1479q12 -45 12.5 -93.5t-9.5 -76.5q-424 -33 -492 -465q141 76 256 76q211 0 336 -112t125 -347.5t-129 -360.5t-340 -125q-145 0 -252 61.5t-164 168.5q-113 203 -113 500q0 190 71 342.5t185 242.5q233 189 514 189zM383 606l6 -119v-4q12 -141 73.5 -232 t160.5 -91q209 0 208 332q0 125 -48 182t-155.5 57t-244.5 -90v-35z" />
<glyph unicode="7" horiz-adv-x="950" d="M874.5 1052q26.5 -44 26.5 -62.5t-2 -28.5q-113 -360 -263.5 -794.5t-160.5 -459.5q-127 16 -188 66l336 1147h-295l-47 -236q-25 -4 -74 -4l-119 14q-43 129 -43 287q0 45 12 125h774q17 -10 43.5 -54z" />
<glyph unicode="8" horiz-adv-x="1081" d="M1020 387q0 -176 -111.5 -294t-343.5 -118q-164 0 -307 86q-74 45 -120 125t-46 189.5t63.5 200t170.5 174.5q-203 113 -203 354q0 174 118.5 274.5t326.5 100.5t326 -104.5t118 -243t-63.5 -241t-164.5 -165.5q143 -98 189.5 -178t46.5 -160zM760 352q0 100 -57.5 165 t-200.5 142q-139 -115 -140 -282q0 -94 69 -157.5t136 -63.5q193 -1 193 196zM741 1116q0 176 -176 176q-59 0 -133 -20q-39 -78 -39 -158q0 -193 178 -272q8 -2 21.5 -9.5t19.5 -9.5q129 96 129 293z" />
<glyph unicode="9" horiz-adv-x="1071" d="M201 -166q0 20 2 27q231 16 345 110.5t154 280.5q-94 -39 -174 -39q-211 0 -335.5 129t-124.5 327.5t125.5 329.5t349 131t348.5 -150.5t125 -401.5q0 -385 -196.5 -619.5t-586.5 -247.5q-32 47 -32 123zM563 395q45 0 176 72q10 74 10.5 138.5t-8 114.5t-28 105.5 t-62.5 88t-102 32.5q-207 0 -213 -287q0 -131 61.5 -197.5t165.5 -66.5z" />
<glyph unicode=":" horiz-adv-x="487" d="M416 260q18 -74 18 -126t-6 -118q-72 -18 -133.5 -18t-138.5 6q-20 82 -20.5 120t7.5 124q68 18 130.5 18t142.5 -6zM416 924q18 -74 18 -126.5t-6 -117.5q-72 -18 -133.5 -18t-138.5 6q-20 82 -20.5 119.5t7.5 123.5q68 18 130.5 18.5t142.5 -5.5z" />
<glyph unicode=";" horiz-adv-x="481" d="M410 924q18 -74 18 -126.5t-6 -117.5q-70 -18 -133.5 -18t-138.5 6q-20 82 -20.5 119.5t7.5 123.5q68 18 130.5 18.5t142.5 -5.5zM410 262q18 -74 18 -168t-80 -207.5t-149 -156.5q-72 31 -117 82q27 80 117 186l-52 6q-18 63 -18 130t6 118q84 18 126.5 18t148.5 -8z " />
<glyph unicode="&#x3c;" horiz-adv-x="903" d="M102 471q-8 33 -8 62.5t8 58.5q250 250 340 334q129 123 283 221l100 -137q-385 -403 -463 -473l35 -31l451 -440l-123 -140q-150 96 -209 152q-383 356 -414 393z" />
<glyph unicode="=" horiz-adv-x="1220" d="M1096 465q10 -53 10 -92l-6 -86q-162 -31 -275 -31l-671 14q-10 51 -11 86l9 90q160 31 274 31zM1100 807q6 -55 6 -92l-6 -86q-162 -31 -275 -31l-671 14q-10 51 -11 86l9 88q160 31 274 31z" />
<glyph unicode="&#x3e;" horiz-adv-x="954" d="M889 592q8 -29 8 -58.5t-8 -62.5q-10 -12 -182 -175t-211 -198q-76 -74 -230 -172l-123 140q399 395 486 471l-35 30l-428 443l100 137q150 -96 262.5 -200.5t360.5 -354.5z" />
<glyph unicode="?" horiz-adv-x="987" d="M632.5 1075.5q22.5 61.5 22.5 126t-41 108.5t-112 44q-37 0 -78 -13l-47 -215l-189 9q-37 104 -45 260q180 139 392 139q377 0 376 -363q0 -66 -27.5 -137t-56 -115.5t-84.5 -121.5q-119 -168 -141 -267q-6 -29 -6 -163q-74 -14 -164 -15q-37 86 -57 197q20 129 147 321 q41 63 64.5 103.5t46 102zM653 10q-66 -16 -131 -16t-121 8q-16 70 -16 143.5t6 110.5q66 12 132.5 12t119.5 -6q16 -66 16 -134.5t-6 -117.5z" />
<glyph unicode="@" horiz-adv-x="1873" d="M977 131q35 0 207 107q0 2 -6 192l-156 -14q-166 -16 -166 -154q0 -131 121 -131zM1440 627l-8 -471q74 -10 163 -37q90 180 91 413q0 313 -180.5 481.5t-488.5 168.5t-488.5 -168t-180.5 -488.5t196.5 -529.5t467.5 -209q160 0 383 43t297 86q20 -20 39.5 -70.5 t23.5 -91.5q-80 -53 -316.5 -98t-424.5 -45q-379 0 -625 258t-246 654.5t226.5 617.5t647.5 221t647 -210t226 -589q0 -162 -96 -332t-205 -221q-45 -20 -145.5 -43.5t-198.5 -23.5q-14 29 -39 102q-182 -115 -272 -115q-158 0 -253 83t-95 233q0 336 413 350q104 0 170 4 l-2 33q-4 115 -39.5 168t-126.5 53l-65 -12l-47 -207l-74 -2l-117 14q-39 106 -41 275q43 23 191.5 69.5t187.5 46.5q221 0 312.5 -97t91.5 -314z" />
<glyph unicode="A" horiz-adv-x="1513" d="M1063 1411l2 -20q0 -84 -27 -144q-27 -20 -84 -33l342 -1011l195 -25q0 -84 -47 -178h-498l-18 113q86 33 112 43l-82 231h-460q-61 -182 -66 -190l141 -19q0 -43 -16 -99t-31 -79h-497l-19 113q92 39 166 57l344 1053q-137 20 -207 53q0 59 19 104q43 14 201.5 34 t303 20t226.5 -23zM799 848l-60 270h-20l-66 -282l-96 -256h342z" />
<glyph unicode="B" horiz-adv-x="1290" d="M612 188q317 0 318 228q0 166 -77 210t-345 44l-8 -477q69 -5 112 -5zM823.5 878.5q65.5 36.5 65.5 154.5t-76 157t-229 39h-74q-4 -258 -4 -389l94 -2q158 4 223.5 40.5zM602 -2h-506l-18 113q106 43 172 59q0 6 -19 1083q-33 8 -170 54l17 125h567q244 0 379 -94.5 t135 -272.5q0 -86 -46 -186.5t-105 -118.5q90 -49 141 -137t51 -203q0 -188 -153.5 -305t-444.5 -117z" />
<glyph unicode="C" horiz-adv-x="1210" d="M977 971l-64 2l-59 246q-119 20 -178 20q-117 0 -262 -47q-43 -80 -67.5 -205t-24.5 -235q0 -565 325 -566q139 0 221 41l43 250q129 0 197 -14q33 -223 33 -363q-49 -37 -197.5 -82t-292.5 -45q-610 0 -610 754q0 358 148.5 544.5t474.5 186.5q162 0 286 -47 q111 -41 189 -90q0 -139 -31 -336q-57 -14 -131 -14z" />
<glyph unicode="D" horiz-adv-x="1366" d="M1300 748q0 -451 -215 -627q-88 -70 -190 -95.5t-268 -25.5h-531l-18 113q156 57 172 59q0 6 -19 1083q-90 23 -170 54q12 106 17 125h543q201 0 320.5 -41t211.5 -146q147 -171 147 -499zM955.5 311.5q76.5 112.5 76.5 389t-86 402.5t-287 126h-149q-8 -690 -10 -1030 h145q234 0 310.5 112.5z" />
<glyph unicode="E" d="M510 1229q0 -233 -4 -402h209l20 142q104 0 203 -51v-410l-135 -6q-49 74 -58 129h-241q-4 -287 -4 -432h350l45 178q127 0 192 -12q31 -117 31 -212.5t-6 -152.5h-1016l-18 113q133 51 172 59q-2 121 -4 340q-8 492 -15 743l-170 54l17 125h1005q6 -55 6.5 -138.5 t-30.5 -230.5q-63 -20 -193 -21l-47 185h-309z" />
<glyph unicode="F" horiz-adv-x="1138" d="M510 1229q0 -287 -4 -451h209l20 142q104 0 203 -52v-405l-135 -10q-49 74 -58 129h-241l-4 -385l202 -23q0 -80 -47 -174h-559l-18 113q133 51 172 59q-2 121 -4 340q-8 492 -15 743l-170 54l17 125h1005q6 -55 6.5 -140.5t-30.5 -232.5q-45 -14 -137 -14l-45 2h-11 l-47 180h-309z" />
<glyph unicode="G" horiz-adv-x="1341" d="M651 -27q-279 0 -444.5 188.5t-165.5 557t144.5 554t467.5 185.5q137 0 263 -37t171.5 -62.5t71.5 -45.5q0 -131 -33 -291q-53 -25 -105 -25t-89 4l-43 213q-90 25 -176 25q-121 0 -301 -49q-90 -180 -90 -438q0 -565 331 -566q166 0 265 56q4 106 8 327l-172 54l16 125 h496q25 -45 37 -162q-70 -14 -150 -21q12 -264 12 -454q-59 -39 -215 -88.5t-299 -49.5z" />
<glyph unicode="H" horiz-adv-x="1523" d="M1049 172l-9 483h-536q-4 -307 -4 -458l141 -19q0 -84 -47 -178h-498l-18 113q115 47 172 59q0 6 -19 1083l-170 54l17 125h530q33 -55 39 -162q-104 -16 -137 -21q-4 -266 -4 -399h530l-6 403l-170 54l17 125h530q33 -55 39 -162q-104 -16 -137 -21l-11 -1054l142 -19 q0 -84 -47 -178h-498l-18 113q115 47 172 59z" />
<glyph unicode="I" horiz-adv-x="778" d="M662 1434q-2 0 1 -4.5t8 -17.5t11 -32q12 -33 16 -108q-104 -16 -137 -21l-10 -1054l141 -19q0 -84 -47 -178h-498l-18 113q115 47 172 59q-2 121 -6 340q-6 492 -12 743l-170 54l16 125h533z" />
<glyph unicode="J" horiz-adv-x="950" d="M379 190q129 0 129 197q0 74 -23 868l-170 54l17 125h532q37 -80 37 -162q-123 -20 -137 -21q-2 -119 -3 -424t-5 -478t-90 -274.5t-250 -101.5q-119 0 -237 37t-169 86q2 150 33 340q82 23 201 23l39 -260q33 -9 96 -9z" />
<glyph unicode="K" horiz-adv-x="1417" d="M502 442l-2 -245l141 -19q0 -84 -47 -178h-498l-18 113q115 47 172 59q0 6 -19 1083l-170 54l17 125h530q33 -55 39 -162q-104 -16 -137 -21l-6 -463l403 463l-129 21q0 61 37 162h533q12 -74 16 -125q-109 -41 -170 -54l-375 -487l414 -569l182 -19q0 -86 -47 -180h-293 l-422 606z" />
<glyph unicode="L" horiz-adv-x="1212" d="M956 373q49 8 75 8t112 -14q8 -16 23.5 -104.5t15.5 -142.5t-13 -120h-993l-18 113q100 41 172 59q0 6 -19 1083l-170 54l17 125h532q-2 0 1 -4.5t8.5 -17.5t11.5 -32q12 -33 16 -108q-104 -16 -137 -21q-8 -707 -10 -1054h331z" />
<glyph unicode="M" horiz-adv-x="1990" d="M1063 418l188 1016h533q16 -88 16 -125q-98 -35 -170 -54l146 -1058l141 -19q0 -84 -47 -178h-498l-18 113q115 47 172 59l-158 836l-209 -908h-209l-323 1002l-174 -905l141 -19q0 -84 -47 -178h-498l-18 113q115 47 172 59l145 1083l-170 54l17 125h573l274 -1016h21z " />
<glyph unicode="N" horiz-adv-x="1607" d="M1454 1251l-6 -1251h-262l-676 1102q-8 -600 -10 -905l141 -19q0 -84 -47 -178h-498l-18 113q115 47 172 59q0 6 -19 1083l-170 54l17 125h532l596 -1069l-30 890l-170 54l16 125h532q-2 0 1.5 -4.5t8.5 -17.5t11 -32q12 -33 16 -108q-104 -17 -137 -21z" />
<glyph unicode="O" horiz-adv-x="1325" d="M676 193q340 0 340 522t-340 522q-147 0 -258 -45q-94 -197 -94 -456t77.5 -401t274.5 -142zM676 1458q342 0 481 -179t139 -548q0 -231 -59 -395t-200.5 -262.5t-360.5 -98.5q-334 0 -484.5 186.5t-150.5 543.5q0 753 635 753z" />
<glyph unicode="P" horiz-adv-x="1177" d="M647 1434q260 0 387 -90.5t127 -327.5q0 -199 -123 -331t-393 -132q-88 0 -139 2l-4 -360l149 -17q0 -90 -47 -178h-506l-18 113q106 43 172 59q0 6 -19 1083q-33 8 -170 54l17 125h567zM815 823.5q76 73.5 76 190t-66.5 167t-208.5 50.5q-55 0 -104 -2q-4 -324 -4 -484 l94 3q137 2 213 75.5z" />
<glyph unicode="Q" horiz-adv-x="1308" d="M735 -92.5q82 -22.5 166 -58t107 -42.5q96 -31 297 -30q-8 -78 -25.5 -135.5t-46.5 -94.5q-154 8 -272 54q-33 12 -119 50t-151.5 57.5t-124 19.5t-164 -26t-107.5 -26q-74 63 -74 142q125 57 214 84.5t153.5 27.5t146.5 -22.5zM676 193q340 0 340 522t-340 522 q-147 0 -258 -45q-94 -197 -94 -456t77.5 -401t274.5 -142zM676 1458q342 0 481 -179t139 -548q0 -231 -59 -395t-200.5 -262.5t-360.5 -98.5q-334 0 -484.5 186.5t-150.5 543.5q0 753 635 753z" />
<glyph unicode="R" horiz-adv-x="1343" d="M575 1434q358 0 476 -103q106 -92 106 -284q0 -299 -311 -408l295 -444l176 -19q0 -88 -47 -176h-297l-402 612h-65l-6 -417l149 -17q0 -84 -47 -178h-506l-18 113q123 49 172 59q-4 252 -10.5 608.5t-8.5 476.5l-170 52q2 47 19 125h495zM737 1214q-63 14 -170 15h-57 q-4 -283 -4 -424l100 2q121 2 191.5 50t70.5 187t-131 170z" />
<glyph unicode="S" horiz-adv-x="1173" d="M602 197q238 0 238 202q0 86 -90 146q-66 45 -179.5 97t-170 83t-130.5 86q-141 109 -141 270.5t126 269t341 107.5t459 -137q0 -147 -31 -320q-66 -20 -195 -20l-59 244q-76 23 -166 22.5t-139 -39.5t-49 -115.5t76.5 -137t185 -110.5t149.5 -70.5t104.5 -61.5t96.5 -78 q84 -98 84 -219q0 -213 -141.5 -328t-368.5 -115q-121 0 -265 42t-245 108q4 125 33 338q82 16 197 16l43 -246q112 -34 237 -34z" />
<glyph unicode="T" horiz-adv-x="1271" d="M74 1061q-33 141 -33 223t6 150h1190q8 -98 8 -134q0 -88 -33 -239q-59 -16 -194 -17l-47 207h-174q-2 -78 -19 -1054l148 -19q0 -94 -47 -178h-498l-19 113q141 53 179 59q0 8 -25 1077h-203l-45 -200q-120 0 -194 12z" />
<glyph unicode="U" horiz-adv-x="1544" d="M1176 743l-9 512l-170 54l17 125h532q-2 0 1 -4.5t8.5 -17.5t11.5 -32q12 -33 16 -108q-104 -16 -137 -21l-4 -520q-4 -391 -142.5 -573.5t-472 -182.5t-465 170t-135.5 550t-8 560l-170 54l17 125h532q-2 0 1 -4.5t8 -17.5t11 -32q12 -33 17 -108q-104 -16 -137 -21 l-6 -520q0 -227 24.5 -322.5t61.5 -134.5q80 -82 253 -81q168 0 254 94q70 76 84 266q7 75 7 190z" />
<glyph unicode="V" horiz-adv-x="1495" d="M764 383q37 127 274 870l-182 56l16 125h531q37 -74 39 -162l-127 -19l-408 -1253h-272l-440 1253l-183 56l17 125h530q37 -74 39 -162q-88 -14 -121 -19z" />
<glyph unicode="W" horiz-adv-x="2207" d="M1397 0l-271 1116h-20l-275 -1116h-319l-328 1262q-63 16 -172 59l19 113h497q47 -94 47 -179q-61 -12 -141 -18l215 -905l324 1102h311l268 -1090l222 918q-63 16 -172 59l18 113h498q47 -94 47 -179q-61 -12 -142 -18l-331 -1237h-295z" />
<glyph unicode="X" horiz-adv-x="1478" d="M907 1251q-84 10 -129 21q0 61 37 162h533q12 -74 16 -125q-109 -41 -170 -54l-369 -518l389 -538l183 -19q0 -86 -47 -180h-500l-19 113q39 14 115 47l-276 379l-228 -342l142 -19q0 -86 -49 -178h-496l-19 113q88 41 173 59l335 565l-372 518l-125 17q8 111 37 162h553 q16 -88 16 -125q-117 -43 -170 -54q33 -49 106.5 -152.5t120.5 -174.5z" />
<glyph unicode="Y" horiz-adv-x="1388" d="M836 537l-2 -340l141 -19q0 -84 -47 -178h-498l-18 113q141 55 172 59q0 121 -4 363l-387 718l-181 56l17 125h532q37 -68 37 -162q-47 -8 -121 -19l219 -493h19l233 495q-70 14 -170 54l15 125h534q35 -51 37 -162q-80 -16 -160 -23z" />
<glyph unicode="Z" horiz-adv-x="1220" d="M373 1012l-64 -2q-57 0 -119 24q-37 160 -36.5 250t8.5 150h940q49 -66 65 -162l-721 -1075h445l45 219l65 2q57 0 119 -25q35 -154 35 -242t-8 -151h-989q-51 66 -66 158l719 1073h-389z" />
<glyph unicode="[" horiz-adv-x="753" d="M446 1366l-8 -1587l244 -17q0 -104 -8 -147q-33 -10 -198 -23.5t-232 -13.5q-8 8 -23.5 53t-17.5 78q-8 571 -29 1743q2 33 18.5 79t22.5 52q70 0 248 -13.5t211 -23.5q6 -49 6 -147q-33 -10 -234 -33z" />
<glyph unicode="\" horiz-adv-x="833" d="M842 -2q-41 -6 -117 -6t-119 10l-545 1419q104 18 157.5 18.5t107.5 -7.5z" />
<glyph unicode="]" horiz-adv-x="651" d="M326 -221l-9 1587q-201 23 -233 33q0 98 6 147q33 10 211 23.5t248 13.5q6 -6 22.5 -52t18.5 -79q-20 -1171 -29 -1743q-2 -33 -17.5 -78t-23.5 -53q-68 0 -232.5 13.5t-197.5 23.5q-8 43 -8 147q140 13 244 17z" />
<glyph unicode="^" horiz-adv-x="1048" d="M457 1434q8 4 67.5 4t77.5 -6l324 -621q-10 -12 -45 -25.5t-50 -13.5q-143 104 -196 203q-12 20 -44 90t-67 139q-35 -70 -66.5 -139.5t-50 -101t-67.5 -83t-123 -108.5q-14 0 -49 13.5t-45 25.5q322 613 334 623z" />
<glyph unicode="_" horiz-adv-x="1030" d="M1047 -256q6 -51 6 -90l-9 -84q-160 -31 -272 -31l-760 15q-12 57 -12 86l10 88q160 31 275 30z" />
<glyph unicode="`" horiz-adv-x="1705" d="M530 1530l324 -268q-57 -74 -127 -129q-207 102 -326 219q4 37 36 81t93 97z" />
<glyph unicode="a" horiz-adv-x="1103" d="M449 -25q-174 0 -269.5 72t-95.5 242q0 162 113 264q66 59 182.5 69.5t320.5 10.5v33q0 125 -39.5 183t-140.5 58q-51 0 -92 -20l-49 -178l-152 4q-51 78 -55 248q41 20 192.5 62t194.5 42q221 0 321.5 -91t100.5 -289t-18 -521q117 -10 180 -35q2 -25 2 -59l-2 -45 q-147 -49 -297 -50q-39 0 -58 2q-31 61 -36 148h-11q-39 -37 -136 -93.5t-156 -56.5zM388 177q42 -32 95.5 -32t127 48.5t118.5 87.5l-10 188q-162 -8 -244 -31q-129 -27 -129 -162q0 -67 42 -99z" />
<glyph unicode="b" horiz-adv-x="1083" d="M428 1522q49 0 64 -2q0 -106 -27 -187l-6 -344q190 76 262 76q203 0 300 -150.5t97 -390t-108.5 -394.5t-315.5 -155q-135 0 -284 103q-8 -47 -25 -86q-37 -4 -74 -4t-92 12l-43 1311q-96 10 -162 30q0 76 15 148q118 33 399 33zM686 850q-133 0 -229 -47 q-4 -344 -8 -520q49 -41 112.5 -74t108.5 -33q178 0 178 328q0 139 -38 242.5t-124 103.5z" />
<glyph unicode="c" horiz-adv-x="966" d="M629 895l-33 2q-115 0 -183.5 -79t-68.5 -264t52.5 -281.5t201.5 -96.5q70 0 295 94q51 -72 55 -149q-113 -70 -220 -109t-153 -39q-252 0 -376.5 138.5t-124.5 388.5q0 565 510 565q88 0 181 -21.5t146 -54.5q-6 -205 -45 -297q-68 -16 -190 -16z" />
<glyph unicode="d" horiz-adv-x="1157" d="M981 1522q39 0 49 -2q0 -106 -26 -187q-8 -221 -19.5 -629.5t-15.5 -539.5q121 -16 180 -35v-98q-129 -55 -354 -56q-12 23 -33 111q-188 -102 -273 -111q-209 0 -312 152t-103 390.5t104.5 401t308.5 162.5q113 0 238 -69l-10 299q-96 10 -162 30q0 51 14 148 q121 33 414 33zM520 881q-176 0 -176 -340q0 -195 70 -293q39 -57 100 -58q104 0 236 72l-19 529q-117 90 -211 90z" />
<glyph unicode="e" horiz-adv-x="1048" d="M608 176q70 0 283 96q45 -66 67 -151q-113 -70 -220 -108t-152 -38q-248 0 -376 137.5t-128 390.5t127 407.5t377 154.5q199 0 303 -129t104 -336q0 -43 -49 -98l-590 10q4 -164 61.5 -250t192.5 -86zM567 895q-78 0 -145 -31q-47 -98 -60 -182q160 6 363 8 q-11 205 -158 205z" />
<glyph unicode="f" horiz-adv-x="753" d="M623 1343l-37 3q-66 0 -92.5 -64.5t-28.5 -224.5q123 -2 192 -19q4 0 50 -6q-6 -92 -50 -176h-192q-8 -438 -10 -657q203 -14 225 -37q0 -68 -51 -162h-570l-18 113q160 57 184 61l-22 682h-144l7 117q53 37 137 53v55q0 242 94 353q86 100 251 100t349 -90l2 -33 q0 -113 -29 -252q-61 -16 -112 -16t-76 4z" />
<glyph unicode="g" horiz-adv-x="1183" d="M745.5 291.5q-75.5 -19.5 -146.5 -19.5t-124 15q-23 -53 -43 -80q16 -25 344 -25q205 0 289 -63q39 -27 68.5 -84.5t29.5 -148.5t-90 -183t-225 -145.5t-268 -53.5q-221 0 -358.5 87t-137.5 216q0 25 71.5 120.5t94.5 109.5q-20 10 -71.5 68.5t-57.5 82.5q27 74 164 185 q-160 96 -160 323q0 180 124 274.5t327.5 94.5t308.5 -55q174 31 246.5 30.5t95.5 -2.5q0 -49 -23.5 -111.5t-44.5 -86.5l-176 41q51 -74 51 -191t-39 -204t-106.5 -131t-143 -63.5zM893 -141.5q0 51.5 -45 75t-107 23.5q-240 0 -317 4q-16 -35 -41 -99.5t-25 -76.5 t16.5 -35.5t71 -50.5t133 -27t185 37t115.5 60q14 38 14 89.5zM580 911q-86 0 -134.5 -55t-48.5 -160.5t49.5 -165t133.5 -59.5q182 0 182 225q0 104 -48 159.5t-134 55.5z" />
<glyph unicode="h" horiz-adv-x="1263" d="M469 1522l49 -2q0 -106 -26 -187q-4 -233 -5 -350q66 29 150 55.5t104 26.5q209 0 300.5 -94t91.5 -297q0 -20 -21 -477l160 -21q0 -88 -47 -176h-510l-19 113q137 55 176 59q-4 221 -10 392t-32.5 226.5t-85 55.5t-133 -13.5t-115.5 -31.5l-23 -604l160 -19 q0 -84 -47 -178h-510l-19 113q127 47 185 61l-39 1137q-96 10 -162 30q0 51 14 148q121 33 414 33z" />
<glyph unicode="i" horiz-adv-x="630" d="M489 1049q39 0 50 -2q0 -100 -35 -187q-8 -442 -10 -663l159 -19q0 -84 -47 -178h-510l-18 113q127 47 184 61l-22 664q-121 12 -179 30q0 51 15 148q120 33 413 33zM489 1436q18 -92 18.5 -140.5t-7.5 -107.5q-82 -18 -138.5 -18.5t-136.5 6.5q-18 92 -18 140t8 107 q82 18 138 18.5t136 -5.5z" />
<glyph unicode="j" horiz-adv-x="583" d="M84 -307l43 -2q68 0 99.5 70.5t31.5 175.5q0 256 -31 901q-121 12 -178 30q0 51 14 148q121 33 414 33q39 0 49 -2q0 -100 -34 -187l-9 -887q-2 -242 -75.5 -353.5t-288.5 -111.5q-70 0 -173.5 32t-146.5 61q10 197 43 295q47 18 125 18l68 -2zM477 1436 q18 -92 18.5 -140.5t-8.5 -107.5q-82 -18 -138 -18.5t-136 6.5q-18 92 -18 140t8 107q82 18 138 18.5t136 -5.5z" />
<glyph unicode="k" horiz-adv-x="1210" d="M473 354l-2 -157l160 -19q0 -84 -47 -178h-510l-19 113q127 47 185 61l-39 1137q-96 10 -162 30q0 76 14 148q121 33 414 33q39 0 49 -2q0 -106 -27 -187q-12 -492 -12 -729l244 242l-127 16q0 84 47 178h510l18 -112q-127 -47 -184 -62l-225 -225l287 -444l159 -19 q0 -84 -47 -178h-262l-303 475z" />
<glyph unicode="l" horiz-adv-x="604" d="M467 1522q39 0 49 -2q0 -106 -27 -187q-2 -127 -6 -358q-8 -508 -12 -778l160 -19q0 -84 -47 -178h-510l-19 113q127 47 185 61l-39 1137q-96 10 -162 30q0 76 14 148q121 33 414 33z" />
<glyph unicode="m" horiz-adv-x="1900" d="M1471.5 790.5q-29.5 55.5 -135 55.5t-195.5 -45q0 -262 -27 -604l162 -19q0 -84 -47 -178h-510l-19 113q106 39 187 61l-17 426q-4 133 -31.5 189.5t-105.5 56.5q-41 0 -118.5 -14.5t-118.5 -30.5q0 -6 -19 -604l160 -19q0 -90 -47 -178h-510l-19 113q121 47 185 61 l-27 662q-84 8 -162 30l11 148q35 10 149.5 24.5t173.5 14.5q8 -6 30.5 -38t31.5 -50q70 35 169 67.5t121 32.5q217 0 318 -113q78 41 188.5 77t136.5 36q195 0 291.5 -92t96.5 -307q0 -119 -19 -469l160 -19q0 -90 -47 -178h-508l-19 113q96 39 177 61q-2 47 -5 133 q-4 141 -8 284.5t-33.5 199z" />
<glyph unicode="n" horiz-adv-x="1261" d="M1042.5 964.5q92.5 -100.5 92.5 -280.5t-21 -487l162 -19q0 -84 -47 -178h-510l-19 113q96 39 179 61q-6 236 -12.5 396.5t-31 218t-108.5 57.5q-127 0 -227 -45q-2 -88 -11.5 -288t-11.5 -316l160 -19q0 -84 -47 -178h-510l-19 113q102 39 185 61q-2 123 -13.5 340 t-13.5 322q-76 8 -162 30l11 148q143 39 323 39q23 -14 62 -88q70 35 170 67.5t122 32.5q205 0 297.5 -100.5z" />
<glyph unicode="o" horiz-adv-x="1101" d="M604 901q-74 0 -168 -37q-27 -41 -50.5 -144.5t-23.5 -207.5q0 -193 57.5 -273.5t185.5 -80.5t185.5 80.5t57.5 278.5t-58.5 291t-185.5 93zM990.5 918.5q146.5 -146.5 146.5 -407.5t-145.5 -398.5t-387.5 -137.5t-386 137.5t-144 398.5t145.5 407.5t385 146.5 t386 -146.5z" />
<glyph unicode="p" horiz-adv-x="1107" d="M717 -25q-119 0 -250 78q-4 -217 -4 -327l160 -19q0 -90 -48 -178h-509l-19 113q131 49 184 61l-38 1137q-96 8 -162 30q0 76 14 148q86 18 381 33q16 -27 37 -90q213 104 280 104q203 0 301.5 -142.5t98.5 -382t-109.5 -402.5t-316.5 -163zM479 780l-8 -518 q47 -43 111.5 -74.5t109.5 -31.5q180 0 180 346q0 129 -25.5 206.5t-59 109.5t-78.5 32q-91 0 -230 -70z" />
<glyph unicode="q" horiz-adv-x="1177" d="M178.5 124.5q-104.5 151.5 -104.5 390.5t104.5 394.5t310.5 155.5q129 0 277 -88l49 74q166 0 363 -78q8 -37 8 -111q-129 -33 -164 -37l-18 -1099l159 -19q0 -90 -47 -178h-510l-18 113q117 45 184 61l-12 350q-129 -63 -268 -80q-209 0 -313.5 151.5zM385 276.5 q41 -104.5 137 -104.5t228 70q-6 279 -15 532q-117 90 -213 90q-178 0 -178 -342q0 -141 41 -245.5z" />
<glyph unicode="r" horiz-adv-x="919" d="M668 844q-4 10 -41 10t-127 -55q-8 -401 -11 -602l160 -21q0 -88 -47 -176h-510l-18 113q127 47 184 61l-22 664q-106 8 -179 30l15 148q55 25 399 33q18 -18 18 -72q180 88 228.5 88t119 -23.5t107.5 -50.5v-35q0 -168 -41 -311q-35 -14 -92 -14t-106 6q-6 27 -37 207z " />
<glyph unicode="s" horiz-adv-x="925" d="M817 977l2 -64q0 -160 -24 -208q-68 -25 -189 -25l-65 207q-27 10 -74 10t-77 -28.5t-30 -67.5t31 -71t63.5 -50t95 -48t94.5 -46.5t82 -49t77 -61.5q66 -78 65 -170q0 -158 -119.5 -244t-293.5 -86q-92 0 -202 33t-185 88q0 147 28 275q82 10 133.5 10t69.5 -2l25 -199 q51 -18 122.5 -18t113.5 28.5t42 81t-47 87t-129 72.5t-127 63.5t-96 66.5q-104 80 -105 197q0 145 101.5 226t273.5 81t344 -88z" />
<glyph unicode="t" horiz-adv-x="712" d="M311 -25l-45 2q-12 23 -32.5 84.5t-22.5 92.5q-10 203 -23 702h-143l6 117q47 33 113 59l166 262q80 -8 125 -43l-2 -194q129 -4 239 -25q0 -82 -51 -176h-190q-8 -430 -11 -645q82 -8 224 -47l-2 -107q-35 -23 -155 -52.5t-196 -29.5z" />
<glyph unicode="u" d="M1042 1049q39 0 50 -2q0 -104 -35 -181q-12 -451 -21 -665q92 -8 162 -31l-4 -143q-125 -39 -215 -39t-123 4q-25 49 -41 98q-170 -115 -246 -115q-367 0 -366 371q0 100 16 494q-109 0 -199 28q0 51 15 148q121 33 414 33q39 0 49 -2q0 -100 -35 -187v-414 q0 -131 27.5 -191t118.5 -60t188 63l-13 582q-90 4 -170 28q0 51 15 148q120 33 413 33z" />
<glyph unicode="v" horiz-adv-x="1208" d="M623 307l75 305l109 262q-70 12 -172 54l18 112h510q47 -94 47 -178q-80 -12 -159 -16q-41 -137 -161 -424t-161 -422h-264l-326 844l-159 18q0 84 47 178h510l18 -112q-84 -39 -141 -54l98 -260l72 -307h39z" />
<glyph unicode="w" horiz-adv-x="1761" d="M752 1040q27 2 103.5 2t137.5 -4l131 -422l64 -288h35l59 284l78 262q-70 12 -172 54l18 112h510q47 -94 47 -178q-80 -12 -159 -16q-47 -160 -144.5 -470t-118.5 -376h-278l-191 631h-8l-196 -631h-265l-264 844l-159 18q0 84 47 178h510l18 -112q-84 -39 -141 -54 l67 -260l51 -286h33l60 288z" />
<glyph unicode="x" horiz-adv-x="1122" d="M1128 1040q12 -23 12.5 -42t-3.5 -35.5t-12.5 -37t-10.5 -28.5q-88 -29 -188 -37l-221 -317l276 -348q74 0 164 -17q0 -88 -35 -178h-553l-16 106q76 41 161 66l-143 186l-252 -358h-315q-14 49 -15 117q117 55 230 78l231 315l-262 330l-192 26q0 84 34 174h553l13 -112 q-76 -39 -142 -51l140 -181l254 344h292z" />
<glyph unicode="y" horiz-adv-x="1208" d="M346 -496q-59 0 -131 20.5t-154 61.5q12 236 23 281q78 20 128 20t64 -2l66 -204l18 2q47 6 96.5 112.5t71.5 204.5h-86l-303 844l-159 18q0 84 47 178h510l18 -112q-84 -39 -141 -54l155 -485l19 -88h45l174 573q-70 12 -172 54l18 112h510q47 -94 47 -178 q-80 -12 -159 -16q-184 -541 -288 -836t-188 -400.5t-229 -105.5z" />
<glyph unicode="z" horiz-adv-x="993" d="M905 375q33 -117 33 -203t-8 -172h-795q-41 59 -45 145l520 719h-211l-45 -202q-16 -2 -72.5 -2.5t-121.5 14.5q-29 147 -29 229t6 137h752q29 -57 29 -149l-498 -707h248l45 203q126 0 192 -12z" />
<glyph unicode="{" horiz-adv-x="829" d="M532 356l-8 -338v-75q209 -113 248 -144q-18 -55 -61 -139q-90 10 -398 111q-20 14 -44.5 68.5t-24.5 74.5l65 414q-59 61 -219 204l-12 11q-14 31 -15 84l13 69q35 29 122 109t111 106q-45 274 -65 414q0 18 24.5 72.5t44.5 70.5q307 100 398 111q41 -80 61 -141 q-49 -37 -248 -142v-77l8 -338q0 -135 -270 -250v-23q270 -115 270 -252z" />
<glyph unicode="|" horiz-adv-x="610" d="M467 -408q-49 -20 -112.5 -20t-125.5 16q-4 508 -13 1111.5t-11 818.5q70 16 145.5 16t136.5 -12z" />
<glyph unicode="}" horiz-adv-x="808" d="M299 881l8 338v77q-199 104 -248 142q20 61 62 141q90 -10 397 -111q20 -16 45 -70.5t25 -72.5q-20 -139 -66 -414q25 -27 112 -106.5t122 -108.5q12 -39 12 -65q0 -55 -14 -88l-13 -11q-160 -143 -219 -204l66 -414q0 -20 -24.5 -74.5t-45.5 -68.5q-307 -100 -397 -111 q-43 84 -62 139q39 31 248 144v75l-8 338q0 137 270 252v23q-270 115 -270 250z" />
<glyph unicode="~" horiz-adv-x="1157" d="M166 440q-43 55 -64 103q29 41 143.5 116.5t168.5 75.5l393 -135q37 18 223 78q37 -49 62 -103q-25 -41 -140.5 -117.5t-167.5 -76.5l-395 135q-133 -60 -223 -76z" />
<glyph unicode="&#xa1;" horiz-adv-x="595" d="M467 -479q-72 -16 -142.5 -16.5t-129.5 6.5l49 1091q68 10 116 10t78 -6zM205 735q-18 92 -18.5 140.5t8.5 107.5q82 18 138 18t136 -6q18 -92 18 -140t-8 -107q-82 -18 -138 -18.5t-136 5.5z" />
<glyph unicode="&#xa2;" horiz-adv-x="1067" d="M705 -16l-3 -220q-43 -16 -86 -16t-98 14l-2 222q-414 59 -414 571t402 580l-2 239q55 18 112.5 18.5t106.5 -16.5q-4 -160 -4 -237q147 -20 262 -88q-6 -209 -47 -320q-63 -12 -123 -12l-76 2l-49 235q-12 2 -37 2q-123 0 -196.5 -86t-73.5 -285.5t56 -311t216 -111.5 q23 0 108 26.5t185 73.5q70 -86 76 -155q-159 -98 -313 -125z" />
<glyph unicode="&#xa3;" horiz-adv-x="1077" d="M797 365l65 4q49 0 117 -23q27 -143 27 -238.5t-2 -107.5h-836q-43 70 -43 162q10 23 84 96q139 139 139 209t-63 197l-144 6q-8 39 -16 141q33 16 82 23q-43 109 -43 202q0 188 97 305t287.5 117t375.5 -155q0 -147 -41 -271q-61 -14 -114.5 -14t-78.5 4l-45 246 q-31 6 -89 6t-95 -66.5t-37 -153.5t55 -202l377 -12q8 -51 8 -84l-10 -72q-164 -29 -276 -29q37 -80 36 -145q0 -162 -137 -326h291q11 115 29 181z" />
<glyph unicode="&#xa5;" horiz-adv-x="1406" d="M1100 666q4 -27 4 -74t-2 -70q-139 -25 -232 -24h-26v-58q246 -4 270 -4q4 -57 4 -79.5t-4 -67.5q-139 -25 -229 -25h-43v-67l141 -19q0 -84 -47 -178h-498l-18 113q141 55 170 59v94l-246 6q-8 57 -8 87t6 63q104 25 246 24l-2 54l-256 6q-6 39 -6 77t8 70q90 16 174 23 l-305 577l-181 56l17 125h532q37 -68 37 -162q-47 -8 -121 -19l238 -493l233 495q-70 14 -170 54l15 125h534q6 -18 13.5 -33t11.5 -29t6 -26q6 -37 6 -74q-80 -16 -160 -23l-290 -579z" />
<glyph unicode="&#xa7;" horiz-adv-x="1044" d="M909 1417l2 -63q0 -160 -24 -209q-68 -25 -189 -25l-65 207q-27 10 -74 10t-76.5 -28.5t-29.5 -67.5t30.5 -70.5t63.5 -50t95.5 -48.5t94 -46t81.5 -49t75 -64q68 -76 68 -162.5t-23 -155.5t-66 -122q-68 -84 -155 -149q115 -57 179.5 -123t64.5 -166q0 -158 -120 -244 t-294 -86q-92 0 -201.5 33t-185.5 88q0 147 28 270q102 12 203 13l25 -199q51 -18 122.5 -18.5t113.5 28.5t42 81t-47 87t-167 90t-228.5 157.5t-108.5 235.5q0 162 103 252q82 74 160 103q-215 119 -215.5 268t101 230t273.5 81t344 -88zM391 621q0 -86 46 -136.5 t128 -89.5q72 49 111 103.5t39 134.5q0 135 -160 219q-164 -96 -164 -231z" />
<glyph unicode="&#xa8;" horiz-adv-x="1705" d="M666 1399q16 -70 16 -112t-6 -97q-61 -16 -113.5 -16t-120.5 6q-16 70 -16 111.5t6 97.5q61 16 113.5 16t120.5 -6zM999 1399q16 -70 16.5 -112t-5.5 -97q-61 -16 -113.5 -16t-120.5 6q-16 70 -16 111.5t6 97.5q61 16 113 16t120 -6z" />
<glyph unicode="&#xa9;" horiz-adv-x="1705" d="M102.5 399.5q-63.5 153.5 -63.5 355t63.5 354.5t176.5 243q221 182 559 182q334 0 559 -188q111 -92 175 -244t64 -350.5t-63.5 -352t-176 -243.5t-252.5 -135.5t-306 -45.5t-307.5 45.5t-253 135.5t-175 243.5zM439 1190q-132 -156 -132 -429.5t135.5 -441t390 -167.5 t396 170t141.5 442t-133 427t-399.5 155t-398.5 -156zM958 1059l-96 8q-51 0 -149 -27q-51 -94 -51 -262q0 -330 182 -329q74 0 123 20l26 160l60 2l96 -13q20 -156 20 -247q-31 -25 -130 -55.5t-191 -30.5q-190 0 -307 114.5t-117 352t108.5 358.5t321.5 121 q82 0 160 -26.5t116 -53.5l37 -27v-24q0 -68 -20 -187q-55 -12 -94 -12l-58 2z" />
<glyph unicode="&#xaa;" horiz-adv-x="765" d="M666 872l114 -22l-4 -90q-29 -16 -108.5 -35.5t-155.5 -19.5q-14 29 -27 65q-127 -74 -182 -74q-117 0 -187.5 61.5t-70.5 170.5q0 244 303 254l105 4l-2 39q-2 72 -21.5 93t-79.5 21l-33 -8l-34 -114l-60 -3l-98 13q-29 47 -29 170q29 14 137.5 37.5t141.5 23.5 q168 0 232.5 -55t64.5 -213t-6 -318zM332 858q18 0 133 70l-6 119l-94 -11q-102 -10 -102.5 -94t69.5 -84z" />
<glyph unicode="&#xab;" horiz-adv-x="980" d="M119 502q-6 12 -6 35.5t2 33.5l96 136q53 74 172 196q66 -16 164 -102q-168 -250 -182 -264q23 -27 36 -48l144 -217q-78 -92 -166 -100q-109 109 -168 195zM461 502q-6 12 -6 35.5t2 33.5l96 136q53 74 172 196q66 -16 164 -102q-168 -250 -182 -264q23 -27 36 -48 l144 -217q-78 -92 -166 -100q-109 109 -168 195z" />
<glyph unicode="&#xac;" horiz-adv-x="1060" d="M82 643q158 31 227.5 31t144 -2t164.5 -4q250 -6 375 -11v-448q-47 -8 -100 -8t-109 6l-24 246h-68l-608 12q-12 47 -12 86z" />
<glyph unicode="&#xad;" horiz-adv-x="669" d="M635 612q8 -39 8 -85t-6 -95q-141 -14 -231 -14l-297 12q-10 37 -10.5 85t5.5 97q141 14 232 15z" />
<glyph unicode="&#xae;" horiz-adv-x="1085" d="M745 1165q258 0 259 -151q0 -100 -99 -148l121 -121l72 -8q0 -51 -29 -102h-160l-170 166v-58l54 -24q-2 -45 -23 -84h-250l-18 63q41 27 69 33v332l-63 27l6 75h231zM743 963h23q55 0 55 47q0 33 -55 32h-23v-79zM445.5 1247.5q-138.5 -110.5 -138.5 -333t140.5 -342 t340 -119.5t339 119.5t139.5 338.5t-139.5 333t-341 114t-340 -110.5zM171 633q-56 127 -56 271.5t36.5 248.5t100 175t149.5 118q164 92 365 92t349.5 -64.5t245.5 -208t97 -324.5t-55 -308t-150.5 -204t-214 -117t-252 -40t-251 40t-213 117t-151.5 204z" />
<glyph unicode="&#xaf;" horiz-adv-x="608" d="M92 1427q141 14 249 14.5t259 -14.5q4 -18 4 -79l-6 -99q-141 -12 -231 -12l-273 10q-10 47 -10 82z" />
<glyph unicode="&#xb0;" horiz-adv-x="905" d="M266.5 1464.5q71.5 63.5 193.5 63.5t191.5 -64.5t69.5 -192.5t-69.5 -201t-190.5 -73q-266 0 -266 283q0 121 71.5 184.5zM459 1139q63 0 63 118.5t-63 118.5q-74 0 -74 -118.5t74 -118.5z" />
<glyph unicode="&#xb1;" horiz-adv-x="1159" d="M377 844l92 -2l10 405q66 14 101 15l104 -13q29 -150 29 -237.5t-2 -173.5l374 -9q10 -51 11 -90l-9 -84q-160 -31 -272 -30h-108l-5 -416q-63 -16 -106 -16l-102 10q-29 152 -29 243t2 183l-363 10q-12 61 -12 86l10 88q160 31 275 31zM102 27q160 29 254.5 28.5 t398.5 -7.5t337 -9q6 -20 6 -86l-11 -86q-160 -31 -272 -31l-711 14q-12 61 -12 87z" />
<glyph unicode="&#xb4;" horiz-adv-x="573" d="M131 1262l324 268q121 -96 129 -178q-53 -51 -134 -106.5t-192 -112.5q-66 49 -127 129z" />
<glyph unicode="&#xb6;" horiz-adv-x="1345" d="M133 1001q0 238 139.5 347.5t368.5 109.5q127 0 195 -6q-10 -111 -29 -174l-14 -1493h-406l-10 125q90 33 174 51q-2 199 -10 586q-209 14 -308.5 139t-99.5 315zM881 1452q51 6 184 6t276 -39q10 -78 11 -149q-76 -23 -168 -31q-2 -141 -6 -403q-8 -573 -13 -875 l174 -51l-10 -125h-405l-15 1493q-16 59 -28 174z" />
<glyph unicode="&#xb7;" horiz-adv-x="425" d="M385 719q18 -74 18 -126t-6 -118q-72 -18 -134 -18t-138 6q-20 82 -20.5 120t8.5 124q68 18 130 18t142 -6z" />
<glyph unicode="&#xb8;" horiz-adv-x="675" d="M469 -207q0 12 -119 60q0 78 74 245q35 6 57.5 6t77.5 -18q-6 -100 -20 -139q145 -78 145 -139.5t-71.5 -136t-163.5 -107.5l-54 63q4 10 25 49q49 90 49 117z" />
<glyph unicode="&#xba;" horiz-adv-x="882" d="M347 876.5q30 -65.5 113 -65.5t111.5 63.5t28.5 181.5t-28.5 184.5t-108.5 66.5q-55 0 -101 -19q-45 -92 -45 -219t30 -192.5zM189.5 1351.5q89.5 106.5 275.5 106.5t269 -97t83 -288.5t-88 -301t-266 -109.5q-362 0 -363 391q0 192 89.5 298.5z" />
<glyph unicode="&#xbb;" horiz-adv-x="980" d="M918 571q2 -10 2 -33.5t-7 -35.5l-92 -135q-49 -72 -168 -195q-39 4 -81 28.5t-85 71.5q100 164 181 265q-16 16 -183 264q88 84 164 102q113 -113 172 -196zM575 571q2 -10 2.5 -33.5t-6.5 -35.5l-92 -135q-49 -72 -168 -195q-39 4 -81 28.5t-85 71.5q100 164 181 265 q-16 16 -183 264q88 84 164 102q113 -113 172 -196z" />
<glyph unicode="&#xbf;" horiz-adv-x="997" d="M401.5 -36.5q-22.5 -61.5 -22.5 -126t41 -108.5t112 -44q37 0 78 12l47 215l189 -8q37 -104 45 -260q-180 -139 -391 -140q-377 0 -377 363q0 66 27.5 137.5t56.5 115.5t84 122q119 168 141 266q6 29 6 164q74 14 164 14q37 -86 57 -197q-20 -129 -147 -321 q-41 -63 -64.5 -103t-46 -101.5zM381 1028q66 16 131.5 16t120.5 -8q16 -70 16 -143.5t-6 -110.5q-66 -12 -133.5 -12t-118.5 6q-16 66 -16 134.5t6 117.5z" />
<glyph unicode="&#xc0;" horiz-adv-x="1513" d="M1063 1411l2 -20q0 -84 -27 -144q-27 -20 -84 -33l342 -1011l195 -25q0 -84 -47 -178h-498l-18 113q86 33 112 43l-82 231h-460q-61 -182 -66 -190l141 -19q0 -43 -16 -99t-31 -79h-497l-19 113q92 39 166 57l344 1053q-137 20 -207 53q0 59 19 104q43 14 201.5 34 t303 20t226.5 -23zM799 848l-60 270h-20l-66 -282l-96 -256h342zM573 1923l324 -268q-57 -74 -127 -129q-207 102 -326 219q4 37 36 81t93 97z" />
<glyph unicode="&#xc1;" horiz-adv-x="1513" d="M1063 1411l2 -20q0 -84 -27 -144q-27 -20 -84 -33l342 -1011l195 -25q0 -84 -47 -178h-498l-18 113q86 33 112 43l-82 231h-460q-61 -182 -66 -190l141 -19q0 -43 -16 -99t-31 -79h-497l-19 113q92 39 166 57l344 1053q-137 20 -207 53q0 59 19 104q43 14 201.5 34 t303 20t226.5 -23zM799 848l-60 270h-20l-66 -282l-96 -256h342zM596 1655l324 268q121 -96 129 -178q-53 -51 -134 -106.5t-192 -112.5q-66 49 -127 129z" />
<glyph unicode="&#xc2;" horiz-adv-x="1513" d="M1063 1411l2 -20q0 -84 -27 -144q-27 -20 -84 -33l342 -1011l195 -25q0 -84 -47 -178h-498l-18 113q86 33 112 43l-82 231h-460q-61 -182 -66 -190l141 -19q0 -43 -16 -99t-31 -79h-497l-19 113q92 39 166 57l344 1053q-137 20 -207 53q0 59 19 104q43 14 201.5 34 t303 20t226.5 -23zM799 848l-60 270h-20l-66 -282l-96 -256h342zM968 1530q-150 76 -215 125q-37 -29 -215 -125q-78 74 -108 123l323 268l326 -268q-29 -45 -111 -123z" />
<glyph unicode="&#xc3;" horiz-adv-x="1513" d="M1063 1411l2 -20q0 -84 -27 -144q-27 -20 -84 -33l342 -1011l195 -25q0 -84 -47 -178h-498l-18 113q86 33 112 43l-82 231h-460q-61 -182 -66 -190l141 -19q0 -43 -16 -99t-31 -79h-497l-19 113q92 39 166 57l344 1053q-137 20 -207 53q0 59 19 104q43 14 201.5 34 t303 20t226.5 -23zM799 848l-60 270h-20l-66 -282l-96 -256h342zM418 1550q-39 51 -66 109q37 51 187 164q39 29 75.5 28.5t129 -41.5t126.5 -49q180 86 183 88q49 -70 67 -108q-57 -84 -190 -170q-41 -29 -72 -29q-47 14 -127 48t-121 44q-31 -18 -96 -44t-96 -40z" />
<glyph unicode="&#xc4;" horiz-adv-x="1513" d="M1063 1411l2 -20q0 -84 -27 -144q-27 -20 -84 -33l342 -1011l195 -25q0 -84 -47 -178h-498l-18 113q86 33 112 43l-82 231h-460q-61 -182 -66 -190l141 -19q0 -43 -16 -99t-31 -79h-497l-19 113q92 39 166 57l344 1053q-137 20 -207 53q0 59 19 104q43 14 201.5 34 t303 20t226.5 -23zM799 848l-60 270h-20l-66 -282l-96 -256h342zM691 1792q16 -70 16 -112t-6 -97q-61 -16 -113.5 -16t-120.5 6q-16 70 -16 111.5t6 97.5q61 16 113.5 16t120.5 -6zM1024 1792q16 -70 16.5 -112t-5.5 -97q-61 -16 -113.5 -16t-120.5 6q-16 70 -16 111.5 t6 97.5q61 16 113 16t120 -6z" />
<glyph unicode="&#xc5;" horiz-adv-x="1513" d="M1063 1411l2 -20q0 -84 -27 -144q-27 -20 -84 -33l342 -1011l195 -25q0 -84 -47 -178h-498l-18 113q86 33 112 43l-82 231h-460q-61 -182 -66 -190l141 -19q0 -43 -16 -99t-31 -79h-497l-19 113q92 39 166 57l344 1053q-137 20 -207 53q0 59 19 104q43 14 201.5 34 t303 20t226.5 -23zM799 848l-60 270h-20l-66 -282l-96 -256h342zM677.5 1840.5q-22.5 -25.5 -22.5 -69.5t22.5 -68.5t60.5 -24.5t60.5 24.5t22.5 68.5t-22.5 69.5t-60.5 25.5t-60.5 -25.5zM926.5 1946q78.5 -66 78.5 -177.5t-77.5 -172t-188 -60.5t-190.5 61.5t-80 172 t81 176.5t189.5 66t187 -66z" />
<glyph unicode="&#xc6;" horiz-adv-x="1964" d="M940 172q0 133 -4 215h-377l-104 -192l137 -19q0 -82 -47 -176h-518l-17 115q82 39 178 57l566 1085l-148 46l17 131h1151q8 -57 8 -111q0 -100 -31 -262q-63 -14 -121 -14l-71 2l-48 182h-305q-4 -137 -8 -404h209l20 142q104 0 203 -51v-418h-135q-49 76 -59 131h-240 l-6 -434h350l47 180l72 2l121 -14q31 -133 30.5 -220.5t-8.5 -144.5h-1016l7 115q67 43 147 57zM932 580q0 94 -4 269t-4 230l-131 -254l-136 -245h275z" />
<glyph unicode="&#xc7;" horiz-adv-x="1210" d="M977 971l-64 2l-59 246q-119 20 -178 20q-117 0 -262 -47q-43 -80 -67.5 -205t-24.5 -235q0 -565 325 -566q139 0 221 41l43 250q129 0 197 -14q33 -223 33 -363q-43 -33 -174 -74.5t-267 -50.5l-6 -28q145 -78 145.5 -139.5t-71.5 -136t-164 -107.5l-53 63q4 10 24 49 q49 90 50 117q0 12 -119 60q0 49 26 129q-492 68 -491 745q0 358 148.5 544.5t474.5 186.5q162 0 286 -47q111 -41 189 -90q0 -139 -31 -336q-57 -14 -131 -14z" />
<glyph unicode="&#xc8;" d="M510 1229q0 -233 -4 -402h209l20 142q104 0 203 -51v-410l-135 -6q-49 74 -58 129h-241q-4 -287 -4 -432h350l45 178q127 0 192 -12q31 -117 31 -212.5t-6 -152.5h-1016l-18 113q133 51 172 59q-2 121 -4 340q-8 492 -15 743l-170 54l17 125h1005q6 -55 6.5 -138.5 t-30.5 -230.5q-63 -20 -193 -21l-47 185h-309zM446 1923l324 -268q-57 -74 -127 -129q-207 102 -326 219q4 37 36 81t93 97z" />
<glyph unicode="&#xc9;" d="M510 1229q0 -233 -4 -402h209l20 142q104 0 203 -51v-410l-135 -6q-49 74 -58 129h-241q-4 -287 -4 -432h350l45 178q127 0 192 -12q31 -117 31 -212.5t-6 -152.5h-1016l-18 113q133 51 172 59q-2 121 -4 340q-8 492 -15 743l-170 54l17 125h1005q6 -55 6.5 -138.5 t-30.5 -230.5q-63 -20 -193 -21l-47 185h-309zM416 1655l324 268q121 -96 129 -178q-53 -51 -134 -106.5t-192 -112.5q-66 49 -127 129z" />
<glyph unicode="&#xca;" d="M510 1229q0 -233 -4 -402h209l20 142q104 0 203 -51v-410l-135 -6q-49 74 -58 129h-241q-4 -287 -4 -432h350l45 178q127 0 192 -12q31 -117 31 -212.5t-6 -152.5h-1016l-18 113q133 51 172 59q-2 121 -4 340q-8 492 -15 743l-170 54l17 125h1005q6 -55 6.5 -138.5 t-30.5 -230.5q-63 -20 -193 -21l-47 185h-309zM860 1530q-150 76 -215 125q-37 -29 -215 -125q-78 74 -108 123l323 268l326 -268q-29 -45 -111 -123z" />
<glyph unicode="&#xcb;" d="M510 1229q0 -233 -4 -402h209l20 142q104 0 203 -51v-410l-135 -6q-49 74 -58 129h-241q-4 -287 -4 -432h350l45 178q127 0 192 -12q31 -117 31 -212.5t-6 -152.5h-1016l-18 113q133 51 172 59q-2 121 -4 340q-8 492 -15 743l-170 54l17 125h1005q6 -55 6.5 -138.5 t-30.5 -230.5q-63 -20 -193 -21l-47 185h-309zM616 1792q16 -70 16.5 -112t-5.5 -97q-61 -16 -113.5 -16t-120.5 6q-16 70 -16 111.5t6 97.5q61 16 113 16t120 -6zM950 1792q16 -70 16.5 -112t-5.5 -97q-61 -16 -113.5 -16t-120.5 6q-16 70 -16 111.5t6 97.5q61 16 113 16 t120 -6z" />
<glyph unicode="&#xcc;" horiz-adv-x="778" d="M662 1434q-2 0 1 -4.5t8 -17.5t11 -32q12 -33 16 -108q-104 -16 -137 -21l-10 -1054l141 -19q0 -84 -47 -178h-498l-18 113q115 47 172 59q-2 121 -6 340q-6 492 -12 743l-170 54l16 125h533zM231 1923l324 -268q-57 -74 -127 -129q-207 102 -326 219q4 37 36 81t93 97z " />
<glyph unicode="&#xcd;" horiz-adv-x="778" d="M662 1434q-2 0 1 -4.5t8 -17.5t11 -32q12 -33 16 -108q-104 -16 -137 -21l-10 -1054l141 -19q0 -84 -47 -178h-498l-18 113q115 47 172 59q-2 121 -6 340q-6 492 -12 743l-170 54l16 125h533zM319 1655l324 268q121 -96 129 -178q-53 -51 -134 -106.5t-192 -112.5 q-66 49 -127 129z" />
<glyph unicode="&#xce;" horiz-adv-x="778" d="M662 1434q-2 0 1 -4.5t8 -17.5t11 -32q12 -33 16 -108q-104 -16 -137 -21l-10 -1054l141 -19q0 -84 -47 -178h-498l-18 113q115 47 172 59q-2 121 -6 340q-6 492 -12 743l-170 54l16 125h533zM639 1530q-150 76 -215 125q-37 -29 -215 -125q-78 74 -108 123l323 268 l326 -268q-29 -45 -111 -123z" />
<glyph unicode="&#xcf;" horiz-adv-x="778" d="M662 1434q-2 0 1 -4.5t8 -17.5t11 -32q12 -33 16 -108q-104 -16 -137 -21l-10 -1054l141 -19q0 -84 -47 -178h-498l-18 113q115 47 172 59q-2 121 -6 340q-6 492 -12 743l-170 54l16 125h533zM416 1792q16 -70 16 -112t-6 -97q-61 -16 -113.5 -16t-120.5 6 q-16 70 -16 111.5t6 97.5q61 16 113.5 16t120.5 -6zM749 1792q16 -70 16.5 -112t-5.5 -97q-61 -16 -113.5 -16t-120.5 6q-16 70 -16 111.5t6 97.5q61 16 113 16t120 -6z" />
<glyph unicode="&#xd0;" horiz-adv-x="1363" d="M1300 748q0 -451 -215 -627q-88 -70 -190 -95.5t-268 -25.5h-531l-18 113q156 57 172 59q-4 307 -8 461l-162 6q-6 33 -11.5 86t-7.5 72q96 27 179 28q-4 143 -9 430q-90 23 -170 54q12 106 17 125h543q201 0 320.5 -41t211.5 -146q147 -171 147 -499zM502 627l-2 -428 h145q233 0 310 112.5t77 389t-86 402.5t-287 126h-149l-6 -404l241 -8q14 -37 14.5 -81t-9.5 -95q-139 -14 -230 -14h-18z" />
<glyph unicode="&#xd1;" horiz-adv-x="1607" d="M1454 1251l-6 -1251h-262l-676 1102q-8 -600 -10 -905l141 -19q0 -84 -47 -178h-498l-18 113q115 47 172 59q0 6 -19 1083l-170 54l17 125h532l596 -1069l-30 890l-170 54l16 125h532q-2 0 1.5 -4.5t8.5 -17.5t11 -32q12 -33 16 -108q-104 -17 -137 -21zM514 1550 q-39 51 -65 109q37 51 186 164q39 29 76 28.5t129 -41.5t127 -49q180 86 182 88q49 -70 68 -108q-57 -84 -191 -170q-41 -29 -72 -29q-47 14 -126.5 48t-120.5 44q-31 -18 -96.5 -44t-96.5 -40z" />
<glyph unicode="&#xd2;" horiz-adv-x="1325" d="M676 193q340 0 340 522t-340 522q-147 0 -258 -45q-94 -197 -94 -456t77.5 -401t274.5 -142zM676 1458q342 0 481 -179t139 -548q0 -231 -59 -395t-200.5 -262.5t-360.5 -98.5q-334 0 -484.5 186.5t-150.5 543.5q0 753 635 753zM522 1923l324 -268q-57 -74 -127 -129 q-207 102 -326 219q4 37 36 81t93 97z" />
<glyph unicode="&#xd3;" horiz-adv-x="1325" d="M676 193q340 0 340 522t-340 522q-147 0 -258 -45q-94 -197 -94 -456t77.5 -401t274.5 -142zM676 1458q342 0 481 -179t139 -548q0 -231 -59 -395t-200.5 -262.5t-360.5 -98.5q-334 0 -484.5 186.5t-150.5 543.5q0 753 635 753zM537 1655l324 268q121 -96 129 -178 q-53 -51 -134 -106.5t-192 -112.5q-66 49 -127 129z" />
<glyph unicode="&#xd4;" horiz-adv-x="1325" d="M676 193q340 0 340 522t-340 522q-147 0 -258 -45q-94 -197 -94 -456t77.5 -401t274.5 -142zM676 1458q342 0 481 -179t139 -548q0 -231 -59 -395t-200.5 -262.5t-360.5 -98.5q-334 0 -484.5 186.5t-150.5 543.5q0 753 635 753zM880 1530q-150 76 -215 125 q-37 -29 -215 -125q-78 74 -108 123l323 268l326 -268q-29 -45 -111 -123z" />
<glyph unicode="&#xd5;" horiz-adv-x="1325" d="M676 193q340 0 340 522t-340 522q-147 0 -258 -45q-94 -197 -94 -456t77.5 -401t274.5 -142zM676 1458q342 0 481 -179t139 -548q0 -231 -59 -395t-200.5 -262.5t-360.5 -98.5q-334 0 -484.5 186.5t-150.5 543.5q0 753 635 753zM389 1550q-39 51 -65 109q37 51 186 164 q39 29 76 28.5t129 -41.5t127 -49q180 86 182 88q49 -70 68 -108q-57 -84 -191 -170q-41 -29 -72 -29q-47 14 -126.5 48t-120.5 44q-31 -18 -96.5 -44t-96.5 -40z" />
<glyph unicode="&#xd6;" horiz-adv-x="1325" d="M676 193q340 0 340 522t-340 522q-147 0 -258 -45q-94 -197 -94 -456t77.5 -401t274.5 -142zM676 1458q342 0 481 -179t139 -548q0 -231 -59 -395t-200.5 -262.5t-360.5 -98.5q-334 0 -484.5 186.5t-150.5 543.5q0 753 635 753zM614 1792q16 -70 16.5 -112t-5.5 -97 q-61 -16 -113.5 -16t-120.5 6q-16 70 -16 111.5t6 97.5q61 16 113 16t120 -6zM948 1792q16 -70 16.5 -112t-6.5 -97q-61 -16 -113 -16t-120 6q-16 70 -16 111.5t6 97.5q61 16 113 16t120 -6z" />
<glyph unicode="&#xd8;" horiz-adv-x="1325" d="M676 1458q86 0 158 -12l67 190q63 -6 170 -61l-65 -178q156 -74 223 -239t67 -411.5t-59 -410.5t-200.5 -262.5t-360.5 -98.5q-102 0 -189 19l-71 -197q-57 6 -83 16.5t-63 39.5l68 192q-297 154 -297 660q0 753 635 753zM676 184q348 0 348 525q0 299 -113 434 l-348 -944q45 -15 113 -15zM410 1192q-94 -197 -94.5 -484.5t108.5 -418.5l336 946q-45 10 -84 10q-153 0 -266 -53z" />
<glyph unicode="&#xd9;" horiz-adv-x="1544" d="M1176 743l-9 512l-170 54l17 125h532q-2 0 1 -4.5t8.5 -17.5t11.5 -32q12 -33 16 -108q-104 -16 -137 -21l-4 -520q-4 -391 -142.5 -573.5t-472 -182.5t-465 170t-135.5 550t-8 560l-170 54l17 125h532q-2 0 1 -4.5t8 -17.5t11 -32q12 -33 17 -108q-104 -16 -137 -21 l-6 -520q0 -227 24.5 -322.5t61.5 -134.5q80 -82 253 -81q168 0 254 94q70 76 84 266q7 75 7 190zM890 1923l324 -268q-57 -74 -127 -129q-207 102 -326 219q4 37 36 81t93 97z" />
<glyph unicode="&#xda;" horiz-adv-x="1544" d="M1176 743l-9 512l-170 54l17 125h532q-2 0 1 -4.5t8.5 -17.5t11.5 -32q12 -33 16 -108q-104 -16 -137 -21l-4 -520q-4 -391 -142.5 -573.5t-472 -182.5t-465 170t-135.5 550t-8 560l-170 54l17 125h532q-2 0 1 -4.5t8 -17.5t11 -32q12 -33 17 -108q-104 -16 -137 -21 l-6 -520q0 -227 24.5 -322.5t61.5 -134.5q80 -82 253 -81q168 0 254 94q70 76 84 266q7 75 7 190zM676 1655l323 268q121 -96 129 -178q-53 -51 -134 -106.5t-191 -112.5q-66 49 -127 129z" />
<glyph unicode="&#xdb;" horiz-adv-x="1544" d="M1176 743l-9 512l-170 54l17 125h532q-2 0 1 -4.5t8.5 -17.5t11.5 -32q12 -33 16 -108q-104 -16 -137 -21l-4 -520q-4 -391 -142.5 -573.5t-472 -182.5t-465 170t-135.5 550t-8 560l-170 54l17 125h532q-2 0 1 -4.5t8 -17.5t11 -32q12 -33 17 -108q-104 -16 -137 -21 l-6 -520q0 -227 24.5 -322.5t61.5 -134.5q80 -82 253 -81q168 0 254 94q70 76 84 266q7 75 7 190zM1012 1530q-150 76 -215 125q-37 -29 -215 -125q-78 74 -109 123l324 268l325 -268q-28 -45 -110 -123z" />
<glyph unicode="&#xdc;" horiz-adv-x="1544" d="M1176 743l-9 512l-170 54l17 125h532q-2 0 1 -4.5t8.5 -17.5t11.5 -32q12 -33 16 -108q-104 -16 -137 -21l-4 -520q-4 -391 -142.5 -573.5t-472 -182.5t-465 170t-135.5 550t-8 560l-170 54l17 125h532q-2 0 1 -4.5t8 -17.5t11 -32q12 -33 17 -108q-104 -16 -137 -21 l-6 -520q0 -227 24.5 -322.5t61.5 -134.5q80 -82 253 -81q168 0 254 94q70 76 84 266q7 75 7 190zM752 1792q16 -70 16 -112t-6 -97q-61 -16 -113.5 -16t-120.5 6q-16 70 -16 111.5t6 97.5q61 16 113.5 16t120.5 -6zM1085 1792q16 -70 16.5 -112t-5.5 -97 q-61 -16 -113.5 -16t-120.5 6q-16 70 -16 111.5t6 97.5q61 16 113 16t120 -6z" />
<glyph unicode="&#xdd;" horiz-adv-x="1388" d="M836 537l-2 -340l141 -19q0 -84 -47 -178h-498l-18 113q141 55 172 59q0 121 -4 363l-387 718l-181 56l17 125h532q37 -68 37 -162q-47 -8 -121 -19l219 -493h19l233 495q-70 14 -170 54l15 125h534q35 -51 37 -162q-80 -16 -160 -23zM575 1655l324 268q121 -96 129 -178 q-53 -51 -134 -106.5t-192 -112.5q-66 49 -127 129z" />
<glyph unicode="&#xde;" horiz-adv-x="1185" d="M477 354l-4 -157l160 -19q0 -80 -47 -178h-510l-19 113q115 43 185 61l-39 1055q-94 10 -162 31q0 66 16 147q131 33 398 33q47 0 63 -2q0 -102 -26 -187l-7 -153q147 66 195 65q223 0 338 -98t115 -350q0 -188 -114 -310t-347 -122q-70 -1 -195 71zM566.5 514 q56.5 -31 94 -31t65.5 5.5t65 23.5q80 39 79 193q0 162 -55 208q-41 37 -104 37q-113 0 -219 -53q-10 -270 -11 -324q29 -28 85.5 -59z" />
<glyph unicode="&#xdf;" horiz-adv-x="1335" d="M707 1534q178 0 323.5 -94t145.5 -221q0 -68 -30 -125.5t-60.5 -85t-71.5 -57t-55.5 -42t-30 -39t-15.5 -57.5t25 -60.5t49.5 -45t85 -47t92 -51t80.5 -60.5q92 -78 92 -211q0 -362 -428 -363q-123 0 -241 45q0 176 37 295l180 15l24 -187q59 0 108.5 45t49.5 112 t-38 98.5t-102.5 64.5t-89 46t-69.5 45t-66 60q-55 82 -55 160t24.5 129t53.5 80t70 58.5t57 45.5q51 47 51 111t-69.5 92.5t-139.5 28.5q-205 0 -211 -307q-12 -809 -12 -813l162 -13q0 -92 -47 -186h-518l-17 113q96 45 180 59q0 4 -12 684h-145l-4 117q57 31 151 55 q16 225 139.5 365.5t346.5 140.5z" />
<glyph unicode="&#xe0;" horiz-adv-x="1103" d="M449 -25q-174 0 -269.5 72t-95.5 242q0 162 113 264q66 59 182.5 69.5t320.5 10.5v33q0 125 -39.5 183t-140.5 58q-51 0 -92 -20l-49 -178l-152 4q-51 78 -55 248q41 20 192.5 62t194.5 42q221 0 321.5 -91t100.5 -289t-18 -521q117 -10 180 -35q2 -25 2 -59l-2 -45 q-147 -49 -297 -50q-39 0 -58 2q-31 61 -36 148h-11q-39 -37 -136 -93.5t-156 -56.5zM388 177q42 -32 95.5 -32t127 48.5t118.5 87.5l-10 188q-162 -8 -244 -31q-129 -27 -129 -162q0 -67 42 -99zM436 1530l324 -268q-57 -74 -127 -129q-207 102 -326 219q4 37 36 81t93 97z " />
<glyph unicode="&#xe1;" horiz-adv-x="1103" d="M449 -25q-174 0 -269.5 72t-95.5 242q0 162 113 264q66 59 182.5 69.5t320.5 10.5v33q0 125 -39.5 183t-140.5 58q-51 0 -92 -20l-49 -178l-152 4q-51 78 -55 248q41 20 192.5 62t194.5 42q221 0 321.5 -91t100.5 -289t-18 -521q117 -10 180 -35q2 -25 2 -59l-2 -45 q-147 -49 -297 -50q-39 0 -58 2q-31 61 -36 148h-11q-39 -37 -136 -93.5t-156 -56.5zM388 177q42 -32 95.5 -32t127 48.5t118.5 87.5l-10 188q-162 -8 -244 -31q-129 -27 -129 -162q0 -67 42 -99zM420 1262l323 268q121 -96 129 -178q-53 -51 -134 -106.5t-191 -112.5 q-66 49 -127 129z" />
<glyph unicode="&#xe2;" horiz-adv-x="1103" d="M449 -25q-174 0 -269.5 72t-95.5 242q0 162 113 264q66 59 182.5 69.5t320.5 10.5v33q0 125 -39.5 183t-140.5 58q-51 0 -92 -20l-49 -178l-152 4q-51 78 -55 248q41 20 192.5 62t194.5 42q221 0 321.5 -91t100.5 -289t-18 -521q117 -10 180 -35q2 -25 2 -59l-2 -45 q-147 -49 -297 -50q-39 0 -58 2q-31 61 -36 148h-11q-39 -37 -136 -93.5t-156 -56.5zM388 177q42 -32 95.5 -32t127 48.5t118.5 87.5l-10 188q-162 -8 -244 -31q-129 -27 -129 -162q0 -67 42 -99zM803 1137q-150 76 -215 125q-37 -29 -215 -125q-78 74 -108 123l323 268 l326 -268q-29 -45 -111 -123z" />
<glyph unicode="&#xe3;" horiz-adv-x="1103" d="M449 -25q-174 0 -269.5 72t-95.5 242q0 162 113 264q66 59 182.5 69.5t320.5 10.5v33q0 125 -39.5 183t-140.5 58q-51 0 -92 -20l-49 -178l-152 4q-51 78 -55 248q41 20 192.5 62t194.5 42q221 0 321.5 -91t100.5 -289t-18 -521q117 -10 180 -35q2 -25 2 -59l-2 -45 q-147 -49 -297 -50q-39 0 -58 2q-31 61 -36 148h-11q-39 -37 -136 -93.5t-156 -56.5zM388 177q42 -32 95.5 -32t127 48.5t118.5 87.5l-10 188q-162 -8 -244 -31q-129 -27 -129 -162q0 -67 42 -99zM279 1157q-39 51 -66 109q37 51 187 164q39 29 75.5 28.5t129 -41.5 t126.5 -49q180 86 183 88q49 -70 67 -108q-57 -84 -190 -170q-41 -29 -72 -29q-47 14 -127 48t-121 44q-31 -18 -96 -44t-96 -40z" />
<glyph unicode="&#xe4;" horiz-adv-x="1103" d="M449 -25q-174 0 -269.5 72t-95.5 242q0 162 113 264q66 59 182.5 69.5t320.5 10.5v33q0 125 -39.5 183t-140.5 58q-51 0 -92 -20l-49 -178l-152 4q-51 78 -55 248q41 20 192.5 62t194.5 42q221 0 321.5 -91t100.5 -289t-18 -521q117 -10 180 -35q2 -25 2 -59l-2 -45 q-147 -49 -297 -50q-39 0 -58 2q-31 61 -36 148h-11q-39 -37 -136 -93.5t-156 -56.5zM388 177q42 -32 95.5 -32t127 48.5t118.5 87.5l-10 188q-162 -8 -244 -31q-129 -27 -129 -162q0 -67 42 -99zM547 1399q16 -70 16 -112t-6 -97q-61 -16 -113.5 -16t-120.5 6 q-16 70 -16 111.5t6 97.5q61 16 113.5 16t120.5 -6zM880 1399q16 -70 16.5 -112t-5.5 -97q-61 -16 -113.5 -16t-120.5 6q-16 70 -16 111.5t6 97.5q61 16 113 16t120 -6z" />
<glyph unicode="&#xe5;" horiz-adv-x="1103" d="M449 -25q-174 0 -269.5 72t-95.5 242q0 162 113 264q66 59 182.5 69.5t320.5 10.5v33q0 125 -39.5 183t-140.5 58q-51 0 -92 -20l-49 -178l-152 4q-51 78 -55 248q41 20 192.5 62t194.5 42q221 0 321.5 -91t100.5 -289t-18 -521q117 -10 180 -35q2 -25 2 -59l-2 -45 q-147 -49 -297 -50q-39 0 -58 2q-31 61 -36 148h-11q-39 -37 -136 -93.5t-156 -56.5zM388 177q42 -32 95.5 -32t127 48.5t118.5 87.5l-10 188q-162 -8 -244 -31q-129 -27 -129 -162q0 -67 42 -99zM503.5 1473.5q-22.5 -25.5 -22.5 -69.5t22.5 -68.5t60.5 -24.5t60.5 24.5 t22.5 68.5t-22.5 69.5t-60.5 25.5t-60.5 -25.5zM752.5 1579q78.5 -66 78.5 -177.5t-77.5 -172t-188 -60.5t-190.5 61.5t-80 172t81 176.5t189.5 66t187 -66z" />
<glyph unicode="&#xe6;" horiz-adv-x="1691" d="M1196 -25q-262 0 -395 177q-49 -49 -168 -113t-184 -64q-356 0 -357 314q0 168 109 264q63 55 161.5 67.5t346.5 12.5v43q0 119 -43 175t-138 56q-47 0 -92 -20l-49 -176q-121 0 -151 2q-53 80 -56 248q43 20 188.5 62t186.5 42q225 0 303 -86q121 102 323.5 102 t310 -134t107.5 -345q0 -27 -2 -37q-18 -35 -45 -63q-395 8 -587 10q4 -143 57 -240.5t163.5 -97.5t315.5 98q39 -49 68 -151q-258 -146 -373 -146zM396 177q42 -32 95.5 -32t127 48.5t118.5 87.5l-10 188q-162 -8 -244 -31q-129 -27 -129 -162q0 -67 42 -99zM1178 895 q-78 0 -146 -31q-47 -98 -59 -182q160 6 362 8q-10 205 -157 205z" />
<glyph unicode="&#xe7;" horiz-adv-x="972" d="M629 895l-33 2q-115 0 -183.5 -79t-68.5 -264t52.5 -281.5t201.5 -96.5q70 0 295 94q51 -72 55 -149q-180 -111 -330 -141l-8 -33q145 -78 145.5 -139.5t-71.5 -136t-164 -107.5l-53 63q4 10 25 49q49 90 49 117q0 12 -119 60q0 47 27 131q-375 66 -375 516 q0 565 510 565q88 0 181 -21.5t146 -54.5q-6 -205 -45 -297q-68 -16 -190 -16z" />
<glyph unicode="&#xe8;" horiz-adv-x="1048" d="M608 176q70 0 283 96q45 -66 67 -151q-113 -70 -220 -108t-152 -38q-248 0 -376 137.5t-128 390.5t127 407.5t377 154.5q199 0 303 -129t104 -336q0 -43 -49 -98l-590 10q4 -164 61.5 -250t192.5 -86zM567 895q-78 0 -145 -31q-47 -98 -60 -182q160 6 363 8 q-11 205 -158 205zM387 1530l324 -268q-57 -74 -127 -129q-207 102 -326 219q4 37 36 81t93 97z" />
<glyph unicode="&#xe9;" horiz-adv-x="1048" d="M608 176q70 0 283 96q45 -66 67 -151q-113 -70 -220 -108t-152 -38q-248 0 -376 137.5t-128 390.5t127 407.5t377 154.5q199 0 303 -129t104 -336q0 -43 -49 -98l-590 10q4 -164 61.5 -250t192.5 -86zM567 895q-78 0 -145 -31q-47 -98 -60 -182q160 6 363 8 q-11 205 -158 205zM377 1262l323 268q121 -96 129 -178q-53 -51 -134 -106.5t-191 -112.5q-66 49 -127 129z" />
<glyph unicode="&#xea;" horiz-adv-x="1048" d="M608 176q70 0 283 96q45 -66 67 -151q-113 -70 -220 -108t-152 -38q-248 0 -376 137.5t-128 390.5t127 407.5t377 154.5q199 0 303 -129t104 -336q0 -43 -49 -98l-590 10q4 -164 61.5 -250t192.5 -86zM567 895q-78 0 -145 -31q-47 -98 -60 -182q160 6 363 8 q-11 205 -158 205zM750 1137q-150 76 -215 125q-37 -29 -216 -125q-78 74 -108 123l324 268l325 -268q-28 -45 -110 -123z" />
<glyph unicode="&#xeb;" horiz-adv-x="1048" d="M608 176q70 0 283 96q45 -66 67 -151q-113 -70 -220 -108t-152 -38q-248 0 -376 137.5t-128 390.5t127 407.5t377 154.5q199 0 303 -129t104 -336q0 -43 -49 -98l-590 10q4 -164 61.5 -250t192.5 -86zM567 895q-78 0 -145 -31q-47 -98 -60 -182q160 6 363 8 q-11 205 -158 205zM475 1399q16 -70 16.5 -112t-6.5 -97q-61 -16 -113.5 -16t-119.5 6q-16 70 -16 111.5t6 97.5q61 16 113 16t120 -6zM809 1399q16 -70 16 -112t-6 -97q-61 -16 -113.5 -16t-119.5 6q-16 70 -16.5 111.5t5.5 97.5q61 16 113.5 16t120.5 -6z" />
<glyph unicode="&#xec;" horiz-adv-x="630" d="M170 1530l324 -268q-57 -74 -127 -129q-207 102 -326 219q4 37 36 81t93 97zM489 1049q39 0 50 -2q0 -100 -35 -187q-8 -442 -10 -663l159 -19q0 -84 -47 -178h-510l-18 113q127 47 184 61l-22 664q-121 12 -179 30q0 51 15 148q120 33 413 33z" />
<glyph unicode="&#xed;" horiz-adv-x="630" d="M178 1262l324 268q121 -96 129 -178q-53 -51 -134 -106.5t-192 -112.5q-66 49 -127 129zM489 1049q39 0 50 -2q0 -100 -35 -187q-8 -442 -10 -663l159 -19q0 -84 -47 -178h-510l-18 113q127 47 184 61l-22 664q-121 12 -179 30q0 51 15 148q120 33 413 33z" />
<glyph unicode="&#xee;" horiz-adv-x="630" d="M580 1137q-150 76 -215 125q-37 -29 -215 -125q-78 74 -109 123l324 268l325 -268q-28 -45 -110 -123zM489 1049q39 0 50 -2q0 -100 -35 -187q-8 -442 -10 -663l159 -19q0 -84 -47 -178h-510l-18 113q127 47 184 61l-22 664q-121 12 -179 30q0 51 15 148q120 33 413 33z " />
<glyph unicode="&#xef;" horiz-adv-x="630" d="M270 1399q16 -70 16.5 -112t-5.5 -97q-61 -16 -113.5 -16t-120.5 6q-16 70 -16 111.5t6 97.5q61 16 113 16t120 -6zM604 1399q16 -70 16.5 -112t-6.5 -97q-61 -16 -113 -16t-120 6q-16 70 -16 111.5t6 97.5q61 16 113 16t120 -6zM489 1049q39 0 50 -2q0 -100 -35 -187 q-8 -442 -10 -663l159 -19q0 -84 -47 -178h-510l-18 113q127 47 184 61l-22 664q-121 12 -179 30q0 51 15 148q120 33 413 33z" />
<glyph unicode="&#xf0;" horiz-adv-x="1185" d="M1081 684q0 -709 -518 -709q-219 0 -354 162t-135 369t128 359.5t345 152.5q90 0 231 -66q-29 152 -96 240l-215 -141q-66 66 -109 147q76 70 152 125q-96 35 -238 47q-2 12 -2 54t31 96q209 0 373 -82l200 129q43 -53 87 -154q-47 -53 -113 -104q233 -230 233 -625z M394 748.5q-48 -80.5 -48 -253.5t52.5 -253t174.5 -80q240 0 240 526q0 37 -2 55q-160 86 -264.5 86t-152.5 -80.5z" />
<glyph unicode="&#xf1;" horiz-adv-x="1261" d="M1042.5 964.5q92.5 -100.5 92.5 -280.5t-21 -487l162 -19q0 -84 -47 -178h-510l-19 113q96 39 179 61q-6 236 -12.5 396.5t-31 218t-108.5 57.5q-127 0 -227 -45q-2 -88 -11.5 -288t-11.5 -316l160 -19q0 -84 -47 -178h-510l-19 113q102 39 185 61q-2 123 -13.5 340 t-13.5 322q-76 8 -162 30l11 148q143 39 323 39q23 -14 62 -88q70 35 170 67.5t122 32.5q205 0 297.5 -100.5zM324 1157q-39 49 -66 109q37 51 186 164q39 29 76 28.5t129 -41.5t127 -49q180 86 182 88q49 -70 68 -108q-57 -84 -190 -170q-41 -29 -72 -29q-47 14 -127 48 t-121 44q-31 -18 -96 -44t-96 -40z" />
<glyph unicode="&#xf2;" horiz-adv-x="1101" d="M604 901q-74 0 -168 -37q-27 -41 -50.5 -144.5t-23.5 -207.5q0 -193 57.5 -273.5t185.5 -80.5t185.5 80.5t57.5 278.5t-58.5 291t-185.5 93zM990.5 918.5q146.5 -146.5 146.5 -407.5t-145.5 -398.5t-387.5 -137.5t-386 137.5t-144 398.5t145.5 407.5t385 146.5 t386 -146.5zM446 1530l324 -268q-57 -74 -127 -129q-207 102 -326 219q4 37 36 81t93 97z" />
<glyph unicode="&#xf3;" horiz-adv-x="1101" d="M604 901q-74 0 -168 -37q-27 -41 -50.5 -144.5t-23.5 -207.5q0 -193 57.5 -273.5t185.5 -80.5t185.5 80.5t57.5 278.5t-58.5 291t-185.5 93zM990.5 918.5q146.5 -146.5 146.5 -407.5t-145.5 -398.5t-387.5 -137.5t-386 137.5t-144 398.5t145.5 407.5t385 146.5 t386 -146.5zM416 1262l324 268q121 -96 129 -178q-53 -51 -134 -106.5t-192 -112.5q-66 49 -127 129z" />
<glyph unicode="&#xf4;" horiz-adv-x="1101" d="M604 901q-74 0 -168 -37q-27 -41 -50.5 -144.5t-23.5 -207.5q0 -193 57.5 -273.5t185.5 -80.5t185.5 80.5t57.5 278.5t-58.5 291t-185.5 93zM990.5 918.5q146.5 -146.5 146.5 -407.5t-145.5 -398.5t-387.5 -137.5t-386 137.5t-144 398.5t145.5 407.5t385 146.5 t386 -146.5zM778 1137q-150 76 -215 125q-37 -29 -215 -125q-78 74 -108 123l323 268l326 -268q-29 -45 -111 -123z" />
<glyph unicode="&#xf5;" horiz-adv-x="1101" d="M604 901q-74 0 -168 -37q-27 -41 -50.5 -144.5t-23.5 -207.5q0 -193 57.5 -273.5t185.5 -80.5t185.5 80.5t57.5 278.5t-58.5 291t-185.5 93zM990.5 918.5q146.5 -146.5 146.5 -407.5t-145.5 -398.5t-387.5 -137.5t-386 137.5t-144 398.5t145.5 407.5t385 146.5 t386 -146.5zM273 1157q-39 51 -66 109q37 51 187 164q39 29 75.5 28.5t129 -41.5t126.5 -49q180 86 183 88q49 -70 67 -108q-57 -84 -190 -170q-41 -29 -72 -29q-47 14 -127 48t-121 44q-31 -18 -96 -44t-96 -40z" />
<glyph unicode="&#xf6;" horiz-adv-x="1101" d="M604 901q-74 0 -168 -37q-27 -41 -50.5 -144.5t-23.5 -207.5q0 -193 57.5 -273.5t185.5 -80.5t185.5 80.5t57.5 278.5t-58.5 291t-185.5 93zM990.5 918.5q146.5 -146.5 146.5 -407.5t-145.5 -398.5t-387.5 -137.5t-386 137.5t-144 398.5t145.5 407.5t385 146.5 t386 -146.5zM523 1399q16 -70 16 -112t-6 -97q-61 -16 -113.5 -16t-120.5 6q-16 70 -16 111.5t6 97.5q61 16 113.5 16t120.5 -6zM856 1399q16 -70 16.5 -112t-5.5 -97q-61 -16 -113.5 -16t-120.5 6q-16 70 -16 111.5t6 97.5q61 16 113 16t120 -6z" />
<glyph unicode="&#xf7;" horiz-adv-x="1159" d="M725 260q18 -74 18 -126t-6 -118q-70 -18 -133 -18t-139 6q-20 82 -20.5 120t8.5 124q68 18 130 18t142 -6zM725 1049q18 -74 18 -127.5t-6 -116.5q-70 -18 -133 -18.5t-139 6.5q-20 82 -20.5 119.5t8.5 123.5q68 18 130 18.5t142 -5.5zM102 616q160 29 249 29t395.5 -6 t338.5 -8q10 -41 11 -88l-9 -86q-160 -31 -272 -31l-711 14q-12 61 -12 86z" />
<glyph unicode="&#xf8;" horiz-adv-x="1101" d="M1137 510q0 -260 -145.5 -397.5t-387.5 -137.5q-61 0 -137 15l-78 -195q-100 12 -145 55l73 189q-244 131 -243 471q0 262 145.5 408.5t384.5 146.5q37 0 107 -8l82 207q104 -20 170 -62l-84 -203q121 -66 189.5 -190.5t68.5 -298.5zM796.5 231.5q59.5 81.5 59.5 279.5 t-55 294l-266 -649q35 -6 69 -6q133 0 192.5 81.5zM653 905q-33 4 -59 4q-63 0 -158 -37q-8 -14 -22.5 -39.5t-37 -120t-22.5 -235.5t45 -225z" />
<glyph unicode="&#xf9;" d="M1042 1049q39 0 50 -2q0 -104 -35 -181q-12 -451 -21 -665q92 -8 162 -31l-4 -143q-125 -39 -215 -39t-123 4q-25 49 -41 98q-170 -115 -246 -115q-367 0 -366 371q0 100 16 494q-109 0 -199 28q0 51 15 148q121 33 414 33q39 0 49 -2q0 -100 -35 -187v-414 q0 -131 27.5 -191t118.5 -60t188 63l-13 582q-90 4 -170 28q0 51 15 148q120 33 413 33zM424 1530l324 -268q-57 -74 -127 -129q-207 102 -326 219q4 37 36 81t93 97z" />
<glyph unicode="&#xfa;" d="M1042 1049q39 0 50 -2q0 -104 -35 -181q-12 -451 -21 -665q92 -8 162 -31l-4 -143q-125 -39 -215 -39t-123 4q-25 49 -41 98q-170 -115 -246 -115q-367 0 -366 371q0 100 16 494q-109 0 -199 28q0 51 15 148q121 33 414 33q39 0 49 -2q0 -100 -35 -187v-414 q0 -131 27.5 -191t118.5 -60t188 63l-13 582q-90 4 -170 28q0 51 15 148q120 33 413 33zM430 1262l324 268q121 -96 129 -178q-53 -51 -134 -106.5t-192 -112.5q-66 49 -127 129z" />
<glyph unicode="&#xfb;" d="M1042 1049q39 0 50 -2q0 -104 -35 -181q-12 -451 -21 -665q92 -8 162 -31l-4 -143q-125 -39 -215 -39t-123 4q-25 49 -41 98q-170 -115 -246 -115q-367 0 -366 371q0 100 16 494q-109 0 -199 28q0 51 15 148q121 33 414 33q39 0 49 -2q0 -100 -35 -187v-414 q0 -131 27.5 -191t118.5 -60t188 63l-13 582q-90 4 -170 28q0 51 15 148q120 33 413 33zM803 1137q-150 76 -215 125q-37 -29 -215 -125q-78 74 -109 123l324 268l325 -268q-28 -45 -110 -123z" />
<glyph unicode="&#xfc;" d="M1042 1049q39 0 50 -2q0 -104 -35 -181q-12 -451 -21 -665q92 -8 162 -31l-4 -143q-125 -39 -215 -39t-123 4q-25 49 -41 98q-170 -115 -246 -115q-367 0 -366 371q0 100 16 494q-109 0 -199 28q0 51 15 148q121 33 414 33q39 0 49 -2q0 -100 -35 -187v-414 q0 -131 27.5 -191t118.5 -60t188 63l-13 582q-90 4 -170 28q0 51 15 148q120 33 413 33zM539 1399q16 -70 16 -112t-6 -97q-61 -16 -113.5 -16t-120.5 6q-16 70 -16 111.5t6 97.5q61 16 113.5 16t120.5 -6zM872 1399q16 -70 16.5 -112t-5.5 -97q-61 -16 -113.5 -16t-120.5 6 q-16 70 -16 111.5t6 97.5q61 16 113 16t120 -6z" />
<glyph unicode="&#xfd;" horiz-adv-x="1208" d="M346 -496q-59 0 -131 20.5t-154 61.5q12 236 23 281q78 20 128 20t64 -2l66 -204l18 2q47 6 96.5 112.5t71.5 204.5h-86l-303 844l-159 18q0 84 47 178h510l18 -112q-84 -39 -141 -54l155 -485l19 -88h45l174 573q-70 12 -172 54l18 112h510q47 -94 47 -178 q-80 -12 -159 -16q-184 -541 -288 -836t-188 -400.5t-229 -105.5zM491 1262l324 268q121 -96 129 -178q-53 -51 -134 -106.5t-192 -112.5q-66 49 -127 129z" />
<glyph unicode="&#xfe;" horiz-adv-x="1185" d="M680 1081q453 0 453 -551q0 -193 -105 -362q-53 -86 -146.5 -139.5t-209.5 -53.5q-70 0 -195 72q-4 -201 -4 -301l160 -18q0 -80 -47 -179h-510l-19 113q115 43 185 62q-4 309 -20.5 882.5t-18.5 704.5q-94 10 -162 30q0 66 16 148q131 33 398 33q47 0 63 -2 q0 -102 -26 -187q-6 -106 -7 -317q148 65 195 65zM668 868q-74 0 -176 -53q-10 -455 -11 -549q121 -90 176 -90q98 0 155.5 92t57.5 252q1 348 -202 348z" />
<glyph unicode="&#xff;" horiz-adv-x="1208" d="M346 -496q-59 0 -131 20.5t-154 61.5q12 236 23 281q78 20 128 20t64 -2l66 -204l18 2q47 6 96.5 112.5t71.5 204.5h-86l-303 844l-159 18q0 84 47 178h510l18 -112q-84 -39 -141 -54l155 -485l19 -88h45l174 573q-70 12 -172 54l18 112h510q47 -94 47 -178 q-80 -12 -159 -16q-184 -541 -288 -836t-188 -400.5t-229 -105.5zM521 1399q16 -70 16 -112t-6 -97q-61 -16 -113.5 -16t-120.5 6q-16 70 -16 111.5t6 97.5q61 16 113.5 16t120.5 -6zM854 1399q16 -70 16.5 -112t-5.5 -97q-61 -16 -113.5 -16t-120.5 6q-16 70 -16 111.5 t6 97.5q61 16 113 16t120 -6z" />
<glyph unicode="&#x131;" horiz-adv-x="630" d="M489 1049q39 0 50 -2q0 -100 -35 -187q-8 -442 -10 -663l159 -19q0 -84 -47 -178h-510l-18 113q127 47 184 61l-22 664q-121 12 -179 30q0 51 15 148q120 33 413 33z" />
<glyph unicode="&#x152;" horiz-adv-x="1818" d="M1454 377l74 2l119 -14q33 -133 32.5 -220.5t-8.5 -144.5h-809q-74 -8 -188 -8q-315 0 -474 170t-159 533.5t147.5 551t475.5 187.5h978q8 -57 9 -111q0 -111 -33 -262q-63 -14 -119 -14l-74 2l-45 182h-305q-4 -168 -8 -404h209l20 142q102 0 201 -51v-418h-133 q-49 76 -59 131h-240l-6 -434h350zM793 1221q-59 16 -121 16q-131 0 -252 -43q-92 -168 -92 -489q0 -510 346 -510q68 0 137 24z" />
<glyph unicode="&#x153;" horiz-adv-x="1810" d="M1319 178q78 0 287 94q66 -90 67 -151q-113 -70 -221.5 -108t-155.5 -38q-238 0 -370 138q-121 -137 -353 -138q-500 0 -499.5 545t499.5 545q246 0 363 -129q125 129 344 129t322.5 -135t105.5 -350q-25 -49 -51 -78l-586 10q4 -166 58.5 -250t189.5 -84zM412 256 q47 -96 176 -96t176 94t47 269t-46 273.5t-171 98.5q-86 0 -162 -31q-68 -137 -67.5 -324.5t47.5 -283.5zM1282 895q-78 0 -145 -31q-43 -90 -60 -182q158 4 363 8q-11 205 -158 205z" />
<glyph unicode="&#x178;" horiz-adv-x="1388" d="M836 537l-2 -340l141 -19q0 -84 -47 -178h-498l-18 113q141 55 172 59q0 121 -4 363l-387 718l-181 56l17 125h532q37 -68 37 -162q-47 -8 -121 -19l219 -493h19l233 495q-70 14 -170 54l15 125h534q35 -51 37 -162q-80 -16 -160 -23zM652 1792q16 -70 16 -112t-6 -97 q-61 -16 -113.5 -16t-120.5 6q-16 70 -16 111.5t6 97.5q61 16 113.5 16t120.5 -6zM985 1792q16 -70 16.5 -112t-5.5 -97q-61 -16 -113.5 -16t-120.5 6q-16 70 -16 111.5t6 97.5q61 16 113 16t120 -6z" />
<glyph unicode="&#x192;" horiz-adv-x="1110" d="M651 907q127 0 199 -14q0 -86 -35 -184h-217l-35 -744q-18 -434 -387 -434q-190 0 -319 119q16 158 61 254l14 30q39 6 105 7h35l28 -203q63 -23 97 -23t56.5 20.5t33.5 67.5q18 72 22 199l33 707h-170l-6 133q102 43 180 55l12 203q8 156 88 284q43 68 126 109t196 41 q199 0 342 -117q-12 -80 -36.5 -151.5t-61.5 -132.5q-31 -6 -84 -7h-35l-27 203q-2 0 -22 6q-70 16 -94 17q-78 0 -99 -54q-25 -63 -47 -391h47z" />
<glyph unicode="&#x2c6;" horiz-adv-x="937" d="M735 1137q-150 76 -215 125q-37 -29 -215 -125q-78 74 -108 123l323 268l326 -268q-29 -45 -111 -123z" />
<glyph unicode="&#x2c7;" horiz-adv-x="937" d="M276 1528q150 -76 216 -125q37 29 215 125q78 -74 108 -123l-323 -268l-326 268q28 45 110 123z" />
<glyph unicode="&#x2d8;" horiz-adv-x="937" d="M727 1509q0 -131 -88 -231t-234.5 -100t-229.5 99t-83 232h168q0 -57 36 -99t112 -42q129 0 129 141h190z" />
<glyph unicode="&#x2d9;" horiz-adv-x="315" d="M291 1497q18 -92 18 -140t-8 -108q-82 -18 -138.5 -18t-135.5 6q-18 92 -18.5 140t7.5 108q82 18 138.5 18t136.5 -6z" />
<glyph unicode="&#x2da;" horiz-adv-x="966" d="M415.5 1473.5q-22.5 -25.5 -22.5 -69.5t22.5 -68.5t60.5 -24.5t60.5 24.5t22.5 68.5t-22.5 69.5t-60.5 25.5t-60.5 -25.5zM664.5 1579q78.5 -66 78.5 -177.5t-77.5 -172t-188 -60.5t-190.5 61.5t-80 172t81 176.5t189.5 66t187 -66z" />
<glyph unicode="&#x2db;" horiz-adv-x="618" d="M569 -348q-23 -53 -65 -109q-57 0 -132 11.5t-102.5 23.5t-56.5 29q-55 37 -55 109.5t36.5 170t57.5 113.5q35 6 86 6t88 -6q0 -2 -12 -51q-35 -139 -35 -168q0 -4 190 -129z" />
<glyph unicode="&#x2dc;" horiz-adv-x="1308" d="M334 1157q-39 51 -66 109q37 51 187 164q39 29 75.5 28.5t129 -41.5t126.5 -49q180 86 183 88q49 -70 67 -108q-57 -84 -190 -170q-41 -29 -72 -29q-47 14 -127 48t-121 44q-31 -18 -96 -44t-96 -40z" />
<glyph unicode="&#x2dd;" horiz-adv-x="974" d="M90 1262l303 268q121 -96 129 -178q-49 -51 -124.5 -106.5t-180.5 -112.5q-66 49 -127 129zM459 1262l303 268q121 -96 129 -178q-49 -51 -125 -106.5t-180 -112.5q-66 49 -127 129z" />
<glyph unicode="&#x3a9;" horiz-adv-x="1519" d="M1038.5 360q69.5 129 69.5 367t-86 374t-270 136q-117 0 -246 -47q-10 -18 -26.5 -51t-44 -147.5t-27.5 -241.5q0 -236 52 -361t204 -192q0 -102 -35 -197h-488l-6 137q119 51 203 68q-98 92 -151.5 241.5t-53.5 296.5q0 334 149.5 524.5t478.5 190.5t472 -173t143 -521 q0 -150 -64.5 -309.5t-166.5 -249.5l227 -68l-6 -137h-504q-35 94 -35 197q142 34 211.5 163z" />
<glyph unicode="&#x3c0;" horiz-adv-x="1159" d="M276 1065l584 -49q43 20 213 74l55 -121q-20 -27 -92.5 -77t-134.5 -75q-8 -397 -14 -624q53 -4 176 -29l-4 -123q-39 -16 -143.5 -35.5t-202.5 -19.5q-33 66 -43 141l-33 686l-143 23q-8 -397 -12.5 -556t-28.5 -282q-35 -14 -179 -14q-23 96 -45 852q-72 -31 -184 -60 l-55 121q27 37 131 102.5t155 65.5z" />
<glyph unicode="&#x2000;" horiz-adv-x="1006" />
<glyph unicode="&#x2001;" horiz-adv-x="2012" />
<glyph unicode="&#x2002;" horiz-adv-x="1006" />
<glyph unicode="&#x2003;" horiz-adv-x="2012" />
<glyph unicode="&#x2004;" horiz-adv-x="670" />
<glyph unicode="&#x2005;" horiz-adv-x="503" />
<glyph unicode="&#x2006;" horiz-adv-x="335" />
<glyph unicode="&#x2007;" horiz-adv-x="335" />
<glyph unicode="&#x2008;" horiz-adv-x="251" />
<glyph unicode="&#x2009;" horiz-adv-x="402" />
<glyph unicode="&#x200a;" horiz-adv-x="111" />
<glyph unicode="&#x2010;" horiz-adv-x="669" d="M635 612q8 -39 8 -85t-6 -95q-141 -14 -231 -14l-297 12q-10 37 -10.5 85t5.5 97q141 14 232 15z" />
<glyph unicode="&#x2011;" horiz-adv-x="669" d="M635 612q8 -39 8 -85t-6 -95q-141 -14 -231 -14l-297 12q-10 37 -10.5 85t5.5 97q141 14 232 15z" />
<glyph unicode="&#x2012;" horiz-adv-x="669" d="M635 612q8 -39 8 -85t-6 -95q-141 -14 -231 -14l-297 12q-10 37 -10.5 85t5.5 97q141 14 232 15z" />
<glyph unicode="&#x2013;" horiz-adv-x="1024" d="M1036 705q14 -63 15 -105l-11 -106q-190 -16 -323 -17l-705 15q-10 72 -10 98l10 108q190 18 324 19z" />
<glyph unicode="&#x2014;" horiz-adv-x="2048" d="M1987 702q20 -59 20 -102l-10 -106q-190 -16 -324 -17l-1661 15q-10 68 -10 98l10 108q190 18 324 19z" />
<glyph unicode="&#x2018;" horiz-adv-x="460" d="M121 979q-18 74 -18.5 169t79.5 206.5t150 156.5q72 -29 117 -79q-29 -84 -117 -189q23 0 51 -6q18 -61 18 -128t-6 -118q-84 -18 -139 -18t-135 6z" />
<glyph unicode="&#x2019;" horiz-adv-x="460" d="M410 1497q18 -74 18 -168t-80 -207.5t-149 -156.5q-72 31 -117 82q27 80 117 186l-52 6q-18 63 -18 130t6 118q84 18 126.5 18t148.5 -8z" />
<glyph unicode="&#x201a;" horiz-adv-x="430" d="M379 260q18 -74 18 -168t-79.5 -207.5t-149.5 -156.5q-72 31 -117 82q27 80 117 186l-51 6q-18 63 -18.5 130t5.5 118q84 18 126.5 18t148.5 -8z" />
<glyph unicode="&#x201c;" horiz-adv-x="806" d="M82 1133q0 111 80 223t149 155q70 -29 117 -79q-31 -84 -119 -189q23 0 51 -6q20 -59 20.5 -127t-7.5 -119q-84 -18 -139.5 -18t-135.5 6q-16 82 -16 154zM506 979q-18 74 -18.5 169t79.5 206.5t150 156.5q70 -29 117 -79q-29 -84 -117 -189q25 0 51 -6q18 -61 18 -128 t-6 -118q-84 -18 -139 -18t-135 6z" />
<glyph unicode="&#x201d;" horiz-adv-x="806" d="M410 1497q18 -74 18 -168t-80 -207.5t-149 -156.5q-72 31 -117 82q27 80 117 186l-52 6q-18 63 -18 130t6 118q84 18 126.5 18t148.5 -8zM813 1343q0 -109 -80 -222t-149 -156q-72 31 -117 82q27 80 117 186l-52 6q-18 66 -18 131.5t6 116.5q84 18 126 18t149 -8 q18 -93 18 -154z" />
<glyph unicode="&#x201e;" horiz-adv-x="841" d="M784 106q0 -109 -79.5 -222t-149.5 -156q-72 31 -119 82q31 80 119 186l-51 6q-20 72 -20.5 134.5t8.5 113.5q84 18 125.5 18t148.5 -8q18 -93 18 -154zM410 260q18 -74 18 -168t-80 -207.5t-149 -156.5q-72 31 -117 82q27 80 117 186l-52 6q-18 66 -18 131.5t6 116.5 q84 18 126.5 18t148.5 -8z" />
<glyph unicode="&#x2020;" horiz-adv-x="1050" d="M594 1466q39 -4 94 -51q-10 -84 -84 -340q176 49 334 78q45 -16 51 -33q0 -111 -53 -291q-68 0 -336 80q4 -10 37 -71q88 -166 88 -183l-145 -1124q-72 0 -113 29l-137 1097q2 31 42 116t68 134q-272 -78 -325 -78q-53 168 -54 291q4 16 52 33q174 -31 336 -80 q-84 297 -84 330q131 63 229 63z" />
<glyph unicode="&#x2021;" horiz-adv-x="1050" d="M594 1466q39 -4 94 -51q-10 -84 -84 -340q176 49 334 78q45 -16 51 -33q0 -111 -53 -291q-68 0 -336 80q4 -8 39 -61q86 -141 86 -162q-2 -41 -115 -215q272 78 326 78q53 -168 53 -291q-4 -16 -51 -33q-174 31 -336 80q84 -297 84 -330q-131 -63 -229 -63q-39 4 -95 51 q10 84 84 340q-176 -49 -333 -78q-45 16 -52 33q0 111 54 291q68 0 336 -80q-4 8 -37 63q-88 139 -88 160q2 51 114 215q-272 -78 -325 -78q-53 168 -54 291q4 16 52 33q174 -31 336 -80q-84 297 -84 330q131 63 229 63z" />
<glyph unicode="&#x2022;" horiz-adv-x="835" d="M682 362q-88 -27 -204 -26.5t-259 16.5q-33 127 -33 243t13 204q127 25 246.5 24.5t222.5 -14.5q27 -137 26.5 -244t-12.5 -203z" />
<glyph unicode="&#x2026;" horiz-adv-x="1409" d="M385 260q18 -74 18 -126t-6 -118q-70 -18 -133 -18t-139 6q-20 82 -20.5 120t8.5 124q68 18 130 18t142 -6zM836 260q18 -74 18 -126t-6 -118q-70 -18 -133.5 -18t-139.5 6q-20 82 -20 120t8 124q68 18 130.5 18t142.5 -6zM1286 260q18 -74 18.5 -126t-6.5 -118 q-70 -18 -133 -18t-139 6q-20 82 -20 120t8 124q68 18 130 18t142 -6z" />
<glyph unicode="&#x202f;" horiz-adv-x="402" />
<glyph unicode="&#x2030;" horiz-adv-x="2539" d="M175 1414q93 114 278.5 114t281.5 -110.5t96 -300t-96 -309.5t-280 -120q-373 0 -373 418q0 194 93 308zM996.5 699.5q93.5 113.5 278.5 113.5t280.5 -110.5t95.5 -301t-95.5 -309.5t-279.5 -119q-373 0 -373 418q0 195 93.5 308.5zM1452 1386l-1034 -1425 q-78 37 -146 100l981 1455q123 -52 199 -130zM393.5 870.5q24.5 -16.5 64.5 -16.5t67.5 20.5t37.5 63.5q16 66 16.5 140.5t-3 109.5t-13.5 82q-20 92 -108 92q-68 0 -99 -51q-25 -41 -26.5 -98.5t-1.5 -105.5t1 -73.5t8 -64.5t19.5 -60.5t37 -38zM1214.5 157.5 q24.5 -16.5 60.5 -16.5t60.5 16.5t36.5 37t21 57.5q8 47 8 115.5t-3 104.5t-14 81q-20 94 -108 94q-68 0 -98 -51q-25 -41 -27 -98.5t-2 -104.5t1 -73.5t8 -64.5t19.5 -59.5t37 -38zM1791 699.5q93 113.5 278.5 113.5t280.5 -110.5t95 -301t-95 -309.5t-279 -119 q-373 0 -373 418q0 195 93 308.5zM2009.5 157.5q24.5 -16.5 60 -16.5t60 16.5t37 37t20.5 57.5q8 47 8 115.5t-3 104.5t-13 81q-20 94 -108 94q-68 0 -99 -51q-25 -41 -26.5 -98.5t-1.5 -104.5t1 -73.5t8 -64.5t19.5 -59.5t37 -38z" />
<glyph unicode="&#x2039;" horiz-adv-x="602" d="M109 502q-6 12 -6.5 35.5t1.5 33.5l97 136q53 74 172 196q66 -16 164 -102q-168 -250 -183 -264q23 -27 37 -48l144 -217q-78 -92 -166 -100q-109 109 -168 195z" />
<glyph unicode="&#x203a;" horiz-adv-x="602" d="M575 571q2 -10 2.5 -33.5t-6.5 -35.5l-92 -135q-49 -72 -168 -195q-39 4 -81 28.5t-85 71.5q100 164 181 265q-16 16 -183 264q88 84 164 102q113 -113 172 -196z" />
<glyph unicode="&#x2044;" horiz-adv-x="978" d="M1137 1386l-1035 -1425q-78 37 -145 100l981 1455q123 -52 199 -130z" />
<glyph unicode="&#x205f;" horiz-adv-x="503" />
<glyph unicode="&#x20ac;" horiz-adv-x="1298" d="M815 479q-131 -25 -217 -24.5t-129 2.5q23 -131 83 -200t180 -69t169 33l43 185l170 -7q31 -211 31 -342q-39 -31 -150.5 -56.5t-261.5 -25.5q-236 0 -372 115t-175 373l-149 6q-6 47 -6 96l6 66q63 16 137 22q-2 31 -2 97l-135 6q-6 47 -6 96l6 66q70 16 145 22 q68 518 563 518q127 0 189.5 -22.5t93.5 -40.5q39 -23 94 -74q0 -115 -28 -291q-66 -6 -170 -6l-62 211q-41 20 -110 20q-137 0 -191 -28l-20 -10q-80 -109 -80 -277l354 -12q4 -23 4 -60l-4 -102q-131 -25 -219 -25t-143 2q0 -51 2 -90l360 -12q4 -23 4 -59z" />
<glyph unicode="&#x2122;" horiz-adv-x="1654" d="M76 1145q-35 129 -35 178t2 57h643q2 -12 2 -43l-14 -192q-33 -2 -113 -2l-26 92h-80q-4 -184 -9 -297l117 -18q0 -84 -18 -136h-361l-4 111q92 29 125 33l-26 307h-78l-25 -92zM782 928l66 321q-80 12 -103 17l3 116h313l76 -303h20l64 303h299q12 -84 12 -135 q-68 -4 -100 -4l75 -305l117 -18q0 -84 -18 -136h-361l-4 111q84 29 115 41l-56 278l-106 -327h-86l-133 325l-33 -276l98 -16q0 -84 -18 -136h-360l-5 111q94 27 125 33z" />
<glyph unicode="&#x2202;" horiz-adv-x="1339" d="M680 729q-127 0 -196.5 -90t-69.5 -212t51 -190.5t144 -68.5t165 78t101.5 178t39.5 219q-33 23 -43 30t-33.5 19.5t-43.5 20.5q-54 16 -115 16zM924 862l2 66q0 193 -100.5 310.5t-329.5 170.5q0 100 67 147q250 -41 445 -233q96 -92 152.5 -231.5t56.5 -275.5 t-24 -247.5t-75 -220t-123.5 -192.5t-181 -135.5t-238.5 -51.5q-199 0 -324.5 132t-125.5 337t141.5 340t395.5 135q160 0 262 -51z" />
<glyph unicode="&#x220f;" horiz-adv-x="1544" d="M1327 1251l-10 -1054l141 -19q0 -84 -47 -178h-498l-18 113q115 47 172 59q0 422 -8 1069h-537q-4 -307 -4 -1044l141 -19q0 -84 -47 -178h-497l-19 113q115 47 172 59q0 6 -18 1083l-170 54l16 125h1329q33 -55 39 -162q-104 -17 -137 -21z" />
<glyph unicode="&#x2211;" horiz-adv-x="1284" d="M1196 1434q0 -178 -47 -375q-106 -10 -197 -10l-26 194h-457l352 -547q2 -4 2 -20l-2 -31l-323 -455h434l26 193l197 -12q45 -160 47 -371h-1110l-14 72l475 596l-444 675l-58 19l4 72h1141z" />
<glyph unicode="&#x221a;" horiz-adv-x="1249" d="M1071 1561q80 0 158 -11l-484 -1554q-29 -6 -67 -6l-227 10l-261 815q-113 6 -180 25l8 168q117 31 344 30q63 0 91 -4q0 -47 -27 -166q4 -18 13.5 -47.5t33 -110.5t43.5 -153q59 -203 90 -303l342 1300q43 7 123 7z" />
<glyph unicode="&#x221e;" horiz-adv-x="1955" d="M1884 537q0 -168 -105.5 -281t-299.5 -113q-115 0 -236 60.5t-272 173.5q-145 -109 -267 -171.5t-243 -62.5q-195 0 -292 106.5t-97 273.5t107.5 278.5t291.5 111.5q119 0 241 -61t273 -174q309 236 505 235.5t295 -104.5t99 -272zM1491 383q41 0 94 23q20 31 20.5 111.5 t-33.5 124.5t-95 44q-92 0 -297 -158q168 -145 311 -145zM582.5 658.5q-56.5 21.5 -99.5 21.5q-66 0 -110 -23q-20 -68 -20.5 -134t39.5 -106t94.5 -40t122 39t169.5 119q-70 55 -104.5 78.5t-91 45z" />
<glyph unicode="&#x222b;" horiz-adv-x="921" d="M334 8l-21 1100q0 426 379 426q145 -55 187 -80q-16 -88 -43 -166q-139 0 -207 45q-53 -43 -54 -254v-1063q0 -266 -100 -385q-41 -47 -111.5 -78.5t-166.5 -31.5q-145 55 -187 80q35 88 58 166q137 0 206 -50q60 47 60 291z" />
<glyph unicode="&#x2248;" d="M178 586q-33 55 -55 121q27 37 134.5 102t154.5 65l415 -102q37 20 213 74q33 -55 56 -121q-25 -35 -133.5 -101.5t-153.5 -66.5l-418 102q-37 -20 -213 -73zM178 227q-35 59 -55 121q27 37 134.5 102.5t154.5 65.5l415 -102q37 20 213 73q33 -55 56 -120 q-25 -35 -133.5 -101.5t-153.5 -66.5l-418 102q-37 -21 -213 -74z" />
<glyph unicode="&#x2260;" horiz-adv-x="1308" d="M1167 287q-186 -31 -310 -31t-228 2l-125 -274q-102 12 -150 65l92 213l-307 8q-10 51 -10 86l8 90q184 31 273.5 31t128.5 -2l53 127l-453 10q-10 51 -10 86l8 88q184 31 311 31t236 -2l104 242q6 -2 34 -8.5t44.5 -11.5t30.5 -11q33 -16 66 -41l-80 -174l284 -4 q6 -55 7 -92l-7 -86q-186 -31 -315 -31h-68l-57 -125l436 -8q10 -53 11 -92z" />
<glyph unicode="&#x2264;" horiz-adv-x="1083" d="M84 698q-12 12 -12 56.5t8 54.5q498 313 653 383q55 27 123 53l102 -182q-385 -219 -452 -260l-80 -41l80 -41l452 -260l-102 -182q-123 45 -184 81q-510 297 -588 338zM1008 184q6 -55 6 -92l-6 -86q-162 -31 -275 -31l-672 15q-10 51 -10 86l8 88q160 31 275 31z" />
<glyph unicode="&#x2265;" horiz-adv-x="1077" d="M950 809q8 -10 8 -54t-12 -57q-78 -41 -551 -317q-86 -49 -221 -102l-102 182q418 242 532 301l-80 41l-452 260l102 182q123 -45 279.5 -134t496.5 -302zM1008 184q6 -55 6 -92l-6 -86q-162 -31 -275 -31l-672 15q-10 51 -10 86l8 88q160 31 275 31z" />
<glyph unicode="&#x25ca;" horiz-adv-x="1257" d="M563 1442h131q338 -453 379 -513.5t72 -115.5q61 -111 61 -123q-291 -451 -334 -510q-74 -109 -172 -203q-33 -4 -76.5 -4t-66.5 4q-94 88 -139 154t-131 198t-161 246.5t-75 116.5q53 123 121 217zM631 1208q-324 -457 -361 -510q14 -16 48 -59t54.5 -68.5t250.5 -361.5 h8q209 305 254 362q33 51 100 127q-334 467 -343 485.5t-11 24.5z" />
<glyph unicode="&#xe000;" horiz-adv-x="1044" d="M0 1044h1044v-1044h-1044v1044z" />
<glyph unicode="&#xfb01;" horiz-adv-x="1251" d="M225 182q0 197 -12 676h-158l-6 113q74 29 164 45v84q0 164 98 289q53 68 157.5 106.5t235 38.5t253 -27.5t188.5 -58.5q0 -131 -19 -256q-70 -8 -172 -8l-34 2l-62 145q-6 0 -67.5 9.5t-133 9.5t-131 -65.5t-59.5 -201.5v-53l629 19q27 0 63 -27q-4 -37 -11 -73t-10 -54 t-8 -39q-2 -76 -8 -209q-10 -289 -10 -446q74 0 152 -17q0 -86 -35 -184h-510l-21 113q94 43 185 61q-10 406 -21 670l-395 18q-16 -561 -16 -663q82 0 167 -17q0 -86 -34 -184h-537l-6 113q94 44 184 71z" />
<glyph unicode="&#xfb02;" horiz-adv-x="1251" d="M1133 1348l-19 -1147q74 0 152 -17q0 -86 -35 -184h-512l-21 113q94 39 185 61q-2 219 -10.5 617.5t-10.5 527.5q-90 33 -181 33t-153.5 -67.5t-62.5 -211.5v-24l27 2q117 0 229 -31q0 -74 -35 -162h-221l-12 -657q143 -20 165 -21q0 -82 -34 -180h-537l-6 113 q94 45 184 69q-12 651 -12 676h-158l-6 113q74 35 164 55v74q0 166 114.5 300t319.5 134q324 0 438 -12q27 0 72 -45q-14 -53 -24 -129z" />
</font>
</defs>
</svg>
